<?xml version="1.0" encoding="UTF-8"?>
<svg id="Capa_1" data-name="Capa 1" xmlns="http://www.w3.org/2000/svg" viewBox="0 0 1000 1000">
  <defs>
    <style>
      .cls-1 {
        fill: #f9d462;
      }

      .cls-2 {
        fill: #1d2244;
      }

      .cls-3 {
        fill: #1d2142;
      }

      .cls-4 {
        fill: #4db26d;
      }
    </style>
  </defs>
  <path class="cls-2" d="M519.7,872.49c-19.58,0-38.75-1.74-57.37-5.08-34.61-14.23-61.95-33.33-78.18-46.24-10.67-8.48-16.55-14.3-16.55-14.3-15-17.26-44.13-86.71-114.72-74.81-23.24-33.77-40.24-72.17-49.33-113.54,4.54.3,9.12.12,13.69-.67,19.74-3.41,34.35-12.62,48.11-27.16,38.41-40.56,54.28-94.63,80.3-142.72,5.38-8.21,11.27-16,17.84-23.29,9.01-7.67,18.68-14.47,28.77-20.64,27.44-14.24,56.59-24.73,86.34-33.03,42.49-10.45,86.76-17.66,130.5-18.79,15.31.54,30.47,2.25,45.43,5.51,10.24,3.43,20.11,7.62,29.69,12.6,22.14,14.88,41.49,33.59,62.44,50.07,4.71,3.7,9.5,7.36,14.35,10.95,0-.01.02-.03.02-.04,1.15-1.59,3.35-2.72,5.26-2.97.86-.11,1.74-.03,2.6.15.35-.1.7-.2,1.05-.26,2-.34,4.44.43,6,1.67,1.39,1.1,2.96,3.39,2.97,5.26,0,1.11.1,2.22.11,3.33.18,1.08.08,2.11-.29,3.11-.09.67-.35,1.27-.74,1.81,15.29,10.37,31.24,19.84,47.83,27.7-38.3-145.06-170.4-252.02-327.49-252.02-187.06,0-338.71,151.64-338.71,338.71,0,67.78,19.93,130.91,54.22,183.86-40.7,10.37-54.92,13.92-61.3,18.92-2.28,1.67-3.64,3.49-4.76,5.76-2.78,5.64-1.16,10.39,6.41,12.08,5.84,2.12,16.7,1.79,33.89-2.8,25.52-6.81,35.87-8.38,40.43-3.48.89,1.41,1.5,3.18,1.94,5.35,2.46,12.03-1.55,46.92-64.3,33.3-62.75-13.62-82.86-25.93-105.62-14.72-1.48.52-2.68,1.04-3.62,1.56-17.96,7.6,20.59,14.28,37.35,19.5,18.16,5.65,37.35,8.24,83.64,22.86,25.37,8.01,70.11-9.19,94.72-11.17,8.98-.05,17.47.69,24.83,1.71,56.2,41.46,125.67,65.99,200.87,65.99,34.3,0,67.4-5.12,98.6-14.6.21-.05.32-.07.32-.07-.07.02-.15.03-.22.04,91.86-27.94,167.17-93.87,207.66-179.48-54.7,101.28-161.81,170.1-285,170.1Z"/>
  <path class="cls-2" d="M162.26,750.2l11.34-3.42c1.37-.41,2.76-.76,4.16-1.05l8.96-1.84c2.05-.42,2.63-3.06.95-4.3-8.72-6.42-28.97-19.74-40.89-14.79-15.02,6.23,2.39,13.3,13.03,24.72.63.68,1.57.95,2.46.69Z"/>
  <path class="cls-2" d="M141.66,770.79c.77-5.8,7.04-12.28,10.27-15.26.96-.88.84-2.42-.24-3.15-9.89-6.69-51.07-33.55-62.75-25.13-13.3,9.6,5.06,14.83,13.43,20.17,6.64,4.23,27.7,18.81,36.15,24.67,1.21.84,2.94.15,3.14-1.31Z"/>
  <path class="cls-2" d="M101.13,761.4c19.47,8.19,22.09,10.57,22.93,11.01,9.34,4.81,30.75,17.73,56.93,9.32,28.99-9.32,44.96-2.68,42.65,7.22-3.15,13.49-26.62,26.44-77.12,13.69-35.46-8.96-104.88-35.97-101.61-42.7,8.79-18.11,48.11-1.95,56.22,1.47Z"/>
  <path class="cls-1" d="M208.6,544.82c.03-.13.07-.26.12-.39,4.86-12.1,10.17-22.71,15.67-32.38.8-1.41,1.61-2.8,2.42-4.17,18.85-31.92,39.43-53.75,51.27-86.37,6.39-17.6,5.67-28.42,5.83-40.6.01-.88.03-1.77.05-2.68.11-4.23.39-8.69,1.16-13.7,3.2-20.78,23.25-28.05,31.94-33.86,8.69-5.81,21.53-25.11,25.54-30.12,4.01-5.02,3.13-4.53,3.04-7.05-.04-1.15-3.65-4.97-9.04-11.66-84.91,58.35-140.59,156.14-140.59,266.95,0,7.64.28,15.2.8,22.71,1.81-2.17,3.5-4.39,4.75-6.8,4.61-8.89,6.73-18.4,7.04-19.88Z"/>
  <path class="cls-1" d="M536.33,253.04c28.62,0,56.35,3.83,82.74,10.97,1.21.33,2.42.64,3.62.98,13.56,3.84,26.74,8.57,39.5,14.11,69.28,30.05,125.78,84.14,159.01,151.65-47.18-120.4-164.38-205.66-301.5-205.66-18.1,0-35.85,1.51-53.14,4.37,17.1,7,44.54,17.95,60.26,23.74,3.16-.09,6.33-.15,9.51-.15Z"/>
  <path class="cls-3" d="M573.72,168.89l-4.82,31.02c-.16,1.01-1.15,1.62-2.03,1.49l-7.03-1.09c-1.13-.18-1.54-.88-1.36-2.01l4.63-29.76c1.48-9.54-1.79-14.94-9.96-16.21-8.66-1.35-16.24,2.75-17.26,9.28l-5.04,32.4c-.18,1.13-.9,1.66-2.03,1.48l-7.03-1.09c-1.13-.18-1.53-.88-1.36-2.01l7.59-48.85c.2-1.26.8-1.81,1.93-1.63l6.28.98c.75.12,1.14.95,1.18,2.37l.32,4.55c3.59-4.07,10.69-6.7,18.73-5.45,13.69,2.13,19.48,10.36,17.27,24.55Z"/>
  <path class="cls-3" d="M584.14,206.19c-.86-.23-1.52-1.2-1.28-2.06l13.26-48.55c.27-.98,1.33-1.48,2.18-1.25l6.86,1.87c1.1.3,1.55,1.08,1.25,2.18l-13.25,48.55c-.3,1.1-1.05,1.43-2.15,1.12l-6.86-1.87ZM600.8,134.99c.94-3.43,4.37-5.39,7.68-4.49,3.31.9,5.27,4.34,4.33,7.77-.43,1.59-1.45,2.9-2.85,3.7-4.77,2.52-10.6-1.71-9.16-6.98Z"/>
  <path class="cls-3" d="M694.18,213.73l-12.61,28.33c-.41.93-1.54,1.26-2.35.9l-6.5-2.89c-1.05-.46-1.37-1.3-.9-2.35l12.3-27.63c3.88-8.71,2.36-14.67-4.72-17.82-7.43-3.31-14.28-.1-16.82,5.59l-13.29,29.84c-.47,1.04-1.31,1.37-2.35.9l-6.5-2.89c-1.05-.47-1.37-1.3-.9-2.35l11.89-26.7c4.19-9.4,2.77-15.6-4.08-18.65-7.78-3.46-14.58-.37-17.06,5.2l-13.39,30.07c-.46,1.05-1.3,1.37-2.35.9l-6.5-2.89c-1.04-.47-1.25-1.25-.79-2.3l20.11-45.16c.52-1.16,1.24-1.54,2.29-1.07l5.57,2.48c.81.36,1.08,1.32.75,2.7l-.74,3.84c5.67-3.04,11.58-3.19,17.96-.35,6.96,3.1,10.77,8,11.46,14.56,5.59-3.49,12.92-3.71,19.54-.76,12.65,5.63,15.92,15.16,9.98,28.51Z"/>
  <path class="cls-3" d="M759.69,235.1c.93.66.98,1.48.24,2.51l-28.65,40.29c-.52.72-1.65,1.01-2.38.49l-4.04-2.87c-.93-.66-1.08-1.55-.58-2.91l2.22-4.66c-5.68,2.51-11.58,1.59-17.76-2.65-7.02-4.83-10.65-10.69-11.25-17.51-.61-6.82,1.54-13.57,6.18-20.09,4.64-6.53,10.33-10.59,17.13-12.46,6.72-1.77,13.55-.19,20.49,4.74,3,2.14,5.4,4.46,6.74,6.97,1.23,2.44,1.59,3.47,2.05,5.67l.37,1.67,2.17-1.73c1.23-.84,2.21-.92,2.94-.4l4.14,2.95ZM737.75,251.47c8.32-11.7,6.84-18.84-.3-23.92-9.53-6.78-19.14-2.69-25.4,6.11-6.19,8.7-6.74,18.91,2.37,25.39,7.56,5.38,15.08,4.01,23.33-7.59Z"/>
  <path class="cls-3" d="M741.41,289.77c-.85-.76-.81-1.58-.04-2.43l57.65-64.38c.76-.85,1.57-.99,2.42-.22l5.3,4.75c.66.59.82,1.75.14,2.51l-57.65,64.38c-.68.76-1.85.73-2.51.14l-5.3-4.75Z"/>
  <path class="cls-3" d="M786.07,325.17c-.21.89-.85,1.32-1.84,1.2-5.29-.45-9.97-2.86-14.14-7.32-6.33-6.78-5.45-14.03,2.55-21.85l21.36-19.95-3.73-3.99c-.78-.84-.75-1.73.08-2.52l3.72-3.47c.83-.78,1.73-.75,2.52.09l3.73,3.99,9.85-9.19c.84-.78,1.73-.75,2.51.09l4.86,5.2c.78.84.66,1.64-.18,2.42l-9.84,9.2,9.19,9.85c.87.93.84,1.83,0,2.61l-3.72,3.47c-.84.78-1.74.75-2.6-.18l-9.19-9.85-21.08,19.69c-4.18,3.9-4.75,7.39-1.8,10.55,2.17,2.32,5.01,3.5,8.24,3.43,1.09-.14,1.6.41,1.38,1.67l-1.88,4.88Z"/>
  <path class="cls-3" d="M794.88,335.17c1.37-7.24,5.26-13.16,11.55-17.68,6.4-4.6,13.25-6.39,20.66-5.44,7.4.94,13.43,4.75,18.17,11.36,4.67,6.5,6.28,13.33,4.84,20.47-1.55,7.21-5.43,13.13-11.94,17.8-6.3,4.52-13.15,6.31-20.37,5.4-7.23-.91-13.18-4.62-17.85-11.12-4.75-6.61-6.43-13.53-5.06-20.77ZM818.52,357.63c4.7.22,9.3-1.21,13.64-4.32,4.44-3.19,7.27-7.09,8.76-11.77,1.32-4.7.49-9.12-2.47-13.25-3.04-4.23-7.03-6.53-11.98-6.89-5.05-.28-9.66,1.15-14.02,4.44-4.41,3.01-7.24,6.92-8.38,11.65-1.24,4.8-.34,9.32,2.69,13.56,2.97,4.13,6.89,6.32,11.76,6.57Z"/>
  <path class="cls-3" d="M890.51,403.59c.4.8.12,1.93-.79,2.39l-45.08,22.66c-.91.46-1.59.23-2.05-.68l-2.45-4.88c-.4-.8-.12-1.65.73-2.5l3.97-3.7c-5.57-.61-11.26-4.58-14.4-10.82-6.62-13.17-3.34-23.07,9.83-29.69l27.59-13.87c1.02-.52,1.82-.34,2.33.68l3.2,6.36c.4.8.12,1.93-.79,2.39l-26.8,13.47c-8.75,4.39-11.12,10.71-6.95,19,3.82,7.61,11.33,9.52,17.18,6.73l28.95-14.55c1.02-.51,1.82-.34,2.33.68l3.19,6.36Z"/>
  <path class="cls-3" d="M856.27,444.01c3.47-6.6,8.97-11.06,16.59-13.53,7.49-2.43,14.56-2.05,21.25,1.26,6.68,3.31,11.3,8.89,13.85,16.75,2.55,7.86,1.77,14.92-2.27,21.44-.57.72-1.3.95-2.34.62l-4.6-2.25c-1.12-.57-1.28-1.46-.66-2.46,2.85-4.8,3.57-9.58,1.97-14.53-1.73-5.32-4.87-8.84-9.48-10.69-4.73-1.81-9.59-1.97-14.67-.32-4.96,1.61-8.8,4.59-11.45,8.79-2.77,4.24-3.29,8.82-1.64,13.89,1.88,5.8,5.51,9.57,10.96,11.14,1.24.53,1.64,1.34,1.06,2.46l-2.17,4.44c-.49.96-1.17,1.32-2.22.99-7.81-3.08-13.07-8.59-15.7-16.69-2.51-7.74-2.01-14.85,1.5-21.33Z"/>
  <path class="cls-3" d="M903.79,538.81l-29.36,4.76c-1.13.18-1.84-.22-2.02-1.35l-1.14-7.03c-.18-1.13.34-1.86,1.47-2.04l29.23-4.74c9.91-1.61,14.11-6.67,12.75-15.07-1.38-8.53-8.07-13.24-13.46-12.37l-32.87,5.33c-1.13.18-1.86-.34-2.04-1.47l-1.14-7.02c-.18-1.13.36-1.73,1.49-1.92l85.31-13.83c1.13-.18,1.84.22,2.02,1.35l1.14,7.02c.18,1.13-.34,1.86-1.47,2.04l-39.89,6.47c4.11,2.3,8.4,8.16,9.54,15.19,2.01,12.42-4.13,22.17-19.56,24.67Z"/>
  <path class="cls-3" d="M510.43,190.47l-38.1-85.36c-.42-1.13-.94-1.62-1.45-1.61l-3.43.11c-.38.01-.87.54-1.22,1.69l-32.14,87.63c-.35,1.15.06,1.78,1.2,1.74l8.38-.27c.76-.03,1.38-.68,1.72-1.84l3.99-11.1,44.93-1.55,4.81,10.92c.42,1.13,1.08,1.75,1.84,1.72l8.26-.27c1.27-.04,1.63-.69,1.21-1.82ZM452.68,172.31l16.4-45.6.82-2.31.96,2.26,19.53,44.36-37.71,1.3Z"/>
  <g>
    <path class="cls-4" d="M821.2,430.74c-33.23-67.51-89.73-121.6-159.01-151.65-12.76-5.53-25.94-10.27-39.5-14.11-1.2-.34-2.41-.66-3.62-.98-26.39-7.13-54.13-10.97-82.74-10.97-3.18,0-6.35.06-9.51.15-15.72-5.79-43.16-16.74-60.26-23.74-6.35-2.6-11.29-4.66-13.66-5.69-11.05-4.84-20.01-4.62-38.48-7.95-11.43-2.06-26.13-12.41-37.95-21.6-.59-.46-1.17-.91-1.74-1.36-6.53-5.14-12.04-9.76-15.38-12.13-2.29-1.62-4.12-2.78-5.58-3.61-1.93-1.09-4.11.95-3.13,2.94,1.85,3.75,4.59,9.34,7.57,15.5.24.49.48.98.72,1.48,4.99,10.34,10.51,21.98,13.6,29.22,6.6,15.48-10.27,9.28-32.8.53-23.98-9.32-29.56-14.68-30.91-15.86-.68-.59-1.01-.76-1.5-1.13-2.47-1.89-4.6-3.66-6.29-5.13-1.62-1.41-4.1.05-3.66,2.15.36,1.7.87,3.78,1.6,6.24.15.49.3,1,.47,1.53,2.21,7.05,6.1,16.96,12.95,30.23,8.69,16.83,17.73,29,24.2,37.03,5.39,6.7,9,10.52,9.04,11.66.1,2.52.97,2.03-3.04,7.05-4.01,5.02-16.85,24.32-25.54,30.12-8.7,5.81-28.75,13.08-31.94,33.86-.77,5.01-1.05,9.46-1.16,13.7-.02.9-.04,1.79-.05,2.68-.16,12.18.56,23-5.83,40.6-11.84,32.62-32.42,54.45-51.27,86.37-.81,1.37-1.62,2.76-2.42,4.17-5.5,9.66-10.81,20.28-15.67,32.38-.05.13-.09.26-.12.39-.31,1.47-2.42,10.99-7.04,19.88-1.26,2.42-2.94,4.64-4.75,6.8-5.42,6.5-11.89,12.54-10.93,22.18,1.21,12.07,10.94,62.2,32.37,73.28,1.4.72,2.85,1.29,4.36,1.66,5.14,1.26,9.16,1.73,12.53,1.74.57,0,1.12,0,1.66-.03,10.19-.43,14.45-5.11,28.23-3.41,3.99.49,3.78,8.02,7.99,9.29,49.66,15,37.96-29.67,61.11-50.96.04-.03.07-.06.1-.09,1.11-.85,19.13-14.68,27.18-25.69,8.31-11.35,12.75-26.29,36.22-22.76,20.34,3.06,98.96-14.4,117.45-81.53,13.89,2.3,36.01,6.84,47.16,13.84.2.66.34,1.35.36,2.09.06,1.71.15,3.64.61,5.68.46,2.04,1.34,4.11,2.54,5.91.63.85,1.25,1.76,1.98,2.49.36.38.69.78,1.09,1.15l1.29,1.1c.85.77,1.83,1.25,2.77,1.87.96.47,1.94.99,2.93,1.37,3.96,1.56,7.95,2.34,11.9,3.06,3.96.71,7.9,1.31,11.85,2.07,3.95.74,7.88,1.66,11.78,2.84,1.98.55,3.84,1.27,5.85,1.96,2.03.75,4.09,1.5,6.22,2.21,1.08.35,2.14.7,3.28,1.02,1.18.29,2.08.64,4.55.84,2.09.15,4.07-.57,5.3-2.15.59-.77.98-1.68,1.18-2.7.1-.5.18-1.03.22-1.54l.09-1.17c.07-1.06.14-1.95.27-2.83.07-.44.15-.86.24-1.28.04-.15.02-.1.02-.1,0,.01,0,0,0,0,0,0,.01-.02,0,0,0,0-.03.04,0,0l.11-.17c1.13-1.83,2.28-3.62,3.29-5.5,2.11-3.68,3.9-7.52,5.33-11.45,1.43-3.92,2.45-7.99,2.78-12.1.34-4.11-.09-8.22-1.15-11.96-1.05-3.75-2.66-7.12-4.4-10.13-3.52-6.02-7.32-10.91-10.2-15.71-2.92-4.76-4.95-9.36-6.16-13.62-.35-1.05-.52-2.11-.78-3.11-.24-.97-.37-2.09-.51-2.73-.01-.18-.11-.38-.06-.55l.32-.46c.21-.3.43-.59.67-1.05.48-.81.82-1.65,1.07-2.45.97-3.31.03-5.94-.66-7.43-.74-1.54-1.36-2.19-1.36-2.19,0,0,.52.73,1.05,2.31.49,1.54,1.03,4.11-.16,6.92-.3.69-.67,1.39-1.18,2.05-.19.32-.56.72-.93,1.14l-.56.64c-.11.24,0,.56,0,.85.11,1.28.11,2.19.26,3.29.16,1.06.24,2.19.49,3.32.82,4.58,2.55,9.68,5.18,14.9,2.58,5.23,6.07,10.54,8.95,16.32,2.89,5.76,4.7,12.2,3.76,19.02-.9,6.82-3.99,13.8-8.03,20.58-.97,1.72-2.11,3.38-3.2,5.09l-.75,1.17c-.11.23-.14.49-.22.75l-.17.66c-.14.6-.27,1.2-.37,1.81-.2,1.2-.31,2.41-.39,3.47l-.03.39v.02s-.01.01-.01.01h0c-.16-.03-1.06-.24-1.78-.45-.95-.26-1.94-.59-2.93-.91-2-.66-4.01-1.39-6.01-2.12-2.06-.7-4.19-1.51-6.3-2.08-4.22-1.26-8.45-2.19-12.58-2.91-4.12-.74-8.16-1.3-11.99-1.91-3.82-.61-7.47-1.29-10.57-2.43-.78-.28-1.46-.64-2.19-.95-.6-.42-1.34-.71-1.85-1.18l-.83-.65c-.28-.24-.54-.54-.81-.8-.58-.53-.97-1.12-1.44-1.67-1.65-2.29-2.17-4.82-2.37-8.14-.2-3.27-.54-7.11-1.93-10.4l-.57-1.35c-.27-.56-.9-1.27-.96-1.37-.39-.44-.75-1.01-1.1-1.58-.37-.55-.7-1.14-1-1.76-.31-.61-.65-1.19-.92-1.82-2.29-4.94-3.89-9.79-5.1-14.05-1.21-4.28-2-8.03-2.47-11.1-.46-3.06-.67-5.48-.57-7.06-.03-.83.09-1.39.11-1.83.02-.43-.02-.7-.13-.76,0,0,0,0,0,0,2.26-15.4,11.27-51.55,46.38-60.37,44.96-11.29,51.18-15.5,67.91-6.81,16.73,8.69,22.74,10.68,24.93,17.62,2.19,6.93-.68,17.71,27.46,20.41.99.09,1.96.19,2.94.28.56.05,1.12.1,1.67.16,14.81,1.38,28.25,2.47,36.96,3.97,6.67,1.15,10.58,2.55,10.21,4.5-.42,2.26-1.09,4.79-1.67,6.84-.65,2.27-1.2,3.94-1.2,3.94,0,0,1.19,43.52-34.6,53.78-.23.07-.44.15-.68.21,0,0-.54.63.7,1.48.79.54,2.32,1.17,5.21,1.77,7.38,1.54,19.33,10.85,13.92,16.38,0,0-4.64-.05-6.33-2.37-1.69-2.33,1.81,4.31,1.01,5.68-.56.96-3.74,7.45-15.13,11.3-.53.18-1.08.35-1.64.52-4.71,1.39-10.68,2.34-18.26,2.36-28.05.06-31.02-3.33-31.19,3.45-.17,6.78,4.75,15.02.28,23.84-4.47,8.81-12.77,22.28-8.44,35.27,4.33,12.99,11.08,22.29,4.32,32.13,0,0-.02.1-.04.24.69,5.38,1.36,10.77,1.96,16.16,0,.07,0,.13.01.2.37,10.3.45,20.6.19,30.86-.03,1.01-.06,2.02-.09,3.03-.32,9.88-.94,19.71-1.96,29.46,0,.06-.02.12-.03.19-1.53,8.88-3.63,17.58-6.58,26.09-.04.1-.09.21-.13.31-1.52,3.04-3.14,6.02-4.92,8.95-.24.4-.45.81-.68,1.21-6.08-9.25-12.28-17.73-18.41-25.47-.34-.42-.67-.83-1-1.25-31.4-39.26-60.55-58.59-60.55-58.59-15.97-12.21-14.16-23.03-11.68-32.64,2.49-9.61,3.17-19.43,3.32-18.09l3.46-27.91c-.27-5.22,1.11-5.64,4.86-19.31,3.75-13.66-1.02-15.78-1.02-15.78,0,0-2.68,1.41-7.43,6.05-4.75,4.64-7.63,6.28-7.63,6.28,1.02-19.54-2.29-24.99-4.3-24.03-1.76.85-3.63,12.64-9.6,11.73,0,0-18.25-12.69-23.91-10.01-5.58,2.64-11.16,7.16-15.6,7.86-3.09-.36-5.4-1.14-8.05-1.83-6.27-1.64-7.66,2.89-6.09,3.45,1.57.57,1.39,1.39-5.92,4.52-7.31,3.13-3.42,22.37,2.43,42.73,5.85,20.36-9.84,38.43-9.84,38.43,0,0-18.33,18.43-23.31,41.54-4.98,23.11-12.69,4.14-21.36-8.36-8.66-12.5-34.04-57.85-50.23-53.41-16.19,4.45-16.05,11.92-10.87,16.69,5.18,4.76,9.04,5.34,15.28,19.78,6.24,14.43,27.03,75.25,46.51,76.68,19.48,1.43,21.71,2.81,28.98-5.14,0,0,1.31,17.34,1.95,37.76,1.04,32.92-25.27,60.51-58.2,60.57-.19,0-.39,0-.58,0-11.42,0-22.69-.62-33.8-1.81,30.4,24.18,99.72,70.05,182.92,65.06,159.25-15.36,284.1-149.33,286.56-310.94.79-51.9-11-101.01-32.43-144.55Z"/>
    <path class="cls-2" d="M584.86,884.41c3.5-.52,7.02-1.14,10.56-1.85-1.95.37-5.58,1.04-10.56,1.85Z"/>
    <path class="cls-2" d="M595.42,882.56c1.08-.21,1.66-.32,1.66-.32-.56.12-1.11.21-1.66.32Z"/>
  </g>
</svg>