<?xml version="1.0" encoding="UTF-8"?>
<svg id="Capa_1" data-name="Capa 1" xmlns="http://www.w3.org/2000/svg" viewBox="0 0 633.17 572.24">
  <defs>
    <style>
      .cls-1 {
        fill: #1d1d1b;
      }
    </style>
  </defs>
  <path class="cls-1" d="M44.73,357.41c.79-1.2,2.16-1.32,3.28-1.81,2.7-1.17,5.44-2.39,7.19-4.82,4.13-5.74,10.05-7.31,16.59-7.35,22.05-.14,43.78,2.52,65.21,7.74,25.95,6.32,50.73,16.1,75.6,25.57,23.15,8.82,46.67,16.45,70.44,23.41,16.13,4.73,31.85,10.77,47.98,15.52,20,5.89,40.25,10.61,61.18,10.89,23.16.3,45.16-4.77,65.7-15.77,8.71-4.66,16.42-10.7,24.18-16.7,3.91-3.02,8.2-5.41,12.77-7.21,10.01-3.94,18.79-1.68,25.94,6.38,5.24,5.9,9.15,12.67,13.07,19.44,1.19,2.06,2.08,2.25,3.37.13,9.79-15.96,24.39-26.18,40.94-33.92,13.75-6.43,27.71-12.4,41.97-17.64,8.64-3.18,14.16-2.75,12.8,9.37-3.65,32.57-13.05,62.76-38.28,85.6-11.52,10.43-25.33,17.5-39.57,23.57-14.54,6.2-29.79,10.26-45.01,14.38-.5.13-1.06.02-2.01-.42,14.75-10.62,24.28-24.92,30.46-41.75,1.1,2.66.36,5.13.32,7.57-.18,11.08,3.77,14.04,13.95,9.85,23.5-9.66,40.26-25.85,48.06-50.5.99-3.13,1.74-6.3,1.62-9.62-.19-5.24-2.73-7.93-8.03-8.24-7.83-.45-14.91,2.44-21.95,5.28-17.04,6.88-27.16,20.28-34.41,36.48-3.48,7.78-6.57,15.72-10.37,23.37-4.25,8.55-10.19,15.71-17.43,21.67-14.1,11.62-29.14,21.85-46.25,28.68-20.64,8.24-42.04,11.57-64.18,9.67-37.77-3.23-69.71-19.41-97.91-44.07-19.34-16.9-38.23-34.32-58.14-50.57-29.49-24.07-61.04-44.7-97.14-57.62-23.33-8.35-47.42-13.13-72.13-14.98-8.87-.66-17.73-.67-26.6-.8-1.09-.02-2.36.43-3.24-.8ZM68.47,353.8c.96,1.13,2.09.78,3.09.87,8.02.74,16.07,1.2,24.05,2.21,45.15,5.69,86.98,20.91,126.11,43.98,25.66,15.13,48.46,34.16,72.19,51.94,16.63,12.46,32.87,25.49,51.61,34.82,20.64,10.27,42.42,15.91,65.51,15.36,23.16-.56,44.5-7.57,64.19-19.73,17.61-10.87,29.8-25.35,31.63-46.83.72-8.47-.1-16.81-2.64-24.92-2.1-6.68-6.48-8.38-12.77-5.36-3.61,1.73-6.72,4.21-9.96,6.49-23.99,16.84-50.62,25.73-79.95,26.3-17.69.35-34.83-3.17-51.77-7.81-19.51-5.35-38.23-12.99-57.28-19.68-33.28-11.69-66.34-23.91-99.05-37.1-26.26-10.59-53.02-19.55-81.1-24-11.54-1.83-23.12-3.23-34.83-3.27-1.6,0-3.63-.45-4.52,1.17-1.18,2.15-2.95,3.76-4.49,5.57ZM561.6,395.41c9.23-5.22,19.05-8.9,29.11-11.93,6.02-1.82,12.03-3.78,18.45-3.72,3.62.03,6.64,1.09,8.58,4.38.41.7.94,1.35,1.53,1.91,2.04,1.96,3.31,1.68,4.38-.98,1.05-2.61,1.65-5.36,1.95-8.15.9-8.41-1.39-10.39-9.44-7.83-11.59,3.69-22.26,9.62-33.55,14.07-7.57,2.99-14.73,6.93-21.01,12.25Z"/>
  <path class="cls-1" d="M205.07,370.56c9.05,2.21,18.08,4.52,27.16,6.6,24.41,5.59,49.04,9.69,74.2,8.91,15.19-.47,30.01-2.75,43.28-10.95,1.16-.72,2.32-.94,3.66-.57,24.03,6.68,48.61,7.4,73.31,6.73,21.77-.6,43.28-3.47,64.52-8.18,5.53-1.23,10.12-.61,14.17,3.39,1.07,1.05,2.73,1.94,2.24,3.65-.54,1.91-2.54,1.85-4.13,1.96-4.7.32-9.2,1.31-13.62,3-6.7,2.56-12.07,7.08-17.52,11.45-20.59,16.5-43.98,25.09-70.39,25.7-21.35.5-42.07-3.39-62.6-8.61-33.75-8.59-66.67-19.87-99.7-30.81-10.2-3.38-20.4-6.72-30.6-10.09-1.42-.47-2.81-.99-4.22-1.49.07-.23.15-.47.22-.7ZM383.05,408.66c21.93.39,43.72-4.01,63.53-16.26,1.84-1.14,4.98-2.19,4.39-4.38-.71-2.67-4.05-1.64-6.18-1.47-13.37,1.07-26.7,2.56-40.13,2.98-11.94.38-23.78.22-35.53-2.1-7.57-1.49-15.17-3.04-22.77-.11-6.87,2.65-13.83,4.99-21.08,6.41-.94.19-2.28.26-2.45,1.6-.15,1.21.91,1.85,1.73,2.45,4.01,2.95,8.58,4.66,13.37,5.9,14.45,3.73,29.18,4.93,45.12,4.97Z"/>
  <path class="cls-1" d="M366.39,552.26c.6-1.38,1.99-1.58,3.07-2.16,8.18-4.36,14.11-10.65,16.94-19.61.54-1.71.96-2.71,3.34-2.23,19.27,3.92,38.5,3.67,57.55-1.37,2.62-.69,3.6-.4,4.48,2.28,1.95,5.94,6.82,9.31,12.02,12.14,8.14,4.44,17.12,6.8,25.72,10.1,7.98,3.06,15.89,6.27,22.1,12.45,1.4,1.39,2.71,2.92,3.79,4.56,1.98,3.01,1.68,3.55-1.83,3.58-6.19.06-12.38.03-18.57.03-69.02,0-138.03,0-207.05-.04-1.78,0-4.38.93-5.16-.93-.81-1.93,1.49-3.44,2.78-4.86,8.88-9.76,20.59-13.15,33.15-14.72,13.33-1.66,26.26.78,39.24,3.26,23.05,4.41,46.23,7.85,69.66,9.59,9.54.71,19.06,1.93,28.63.48,2.07-.31,4.18-.65,6.12-1.38,3.13-1.17,3.5-3.02,1.39-5.67-2.01-2.53-4.86-4.01-7.54-5.63-7.88-4.78-15.69-9.68-24.75-12.11-11.95-3.21-23.05-.88-33.87,4.53-8.7,4.35-17.7,7.93-27.62,8.32-1.21.05-2.54.63-3.58-.63Z"/>
  <path class="cls-1" d="M353.95,368.36c8.44.9,16.87,1.94,25.33,2.68,24.47,2.12,48.93,3.3,73.23-1.74,3.1-.64,6.11-1.59,8.83-3.25,2.29-1.4,2.84-3.3,1.42-5.65-.42-.7-.83-1.44-1.41-2-14.06-13.57-29.77-23.6-50.38-21.67-15.7,1.46-30.07,6.44-41.76,17.67-3.15,3.03-6.71,5.64-10.03,8.4-.86-.84-.54-1.24-.23-1.58,13.01-14.66,28.11-25.91,47.84-29.86,5.21-1.04,6.19.58,2.92-3.55-4.68-5.89-3.99-11.52-.43-17.48,2.29-3.84,5.1-7.27,8.11-10.52,2.53-2.74,4.66-2.9,7.24-.3,4.36,4.4,8.46,9.08,10.57,15.07,1.53,4.34,1.31,8.46-1.82,12.18-.88,1.05-1.67,2.31-2.06,3.61,1.46.31,1.3.07,3.75.64,9.44,2.19,18.14,6.04,26.11,11.55,8.07,5.57,15.46,12.09,24.01,16.98,2.94,1.68,5.9,3.32,8.8,5.07,1.17.7,2.68,1.42,2.28,3.15-.33,1.45-1.79,1.69-3.05,1.99-11.03,2.61-22.2,4.43-33.41,6.02-17.49,2.48-35.07,3.57-52.73,2.92-14.94-.55-29.85-1.63-44.34-5.69-3.18-.89-6.48-1.63-8.8-4.62ZM418.5,320.85c3.83.05,5.94-1.79,5.97-5.21.02-3.44-3.53-9.27-5.65-9.27-2.17,0-6.72,6.16-6.69,9.05.03,3.24,2.54,5.37,6.37,5.42Z"/>
  <g>
    <path class="cls-1" d="M209.82,156.34c3.74,0,7.43.77,11.04,2.31,3.61,1.54,6.72,3.61,9.33,6.22,2.61,2.61,4.65,5.72,6.12,9.33,1.47,3.61,2.01,7.43,1.6,11.44-.27,4.55-1.57,8.9-3.91,13.04-2.34,4.15-5.29,7.76-8.83,10.84-3.55,3.08-7.59,5.55-12.14,7.43-4.55,1.87-9.17,2.81-13.85,2.81-3.21,0-6.36-.3-9.43-.9-3.08-.6-6.02-1.34-8.83-2.21-2.81-.87-5.42-1.84-7.83-2.91-2.41-1.07-4.55-2.08-6.42-3.01-2.41-1.07-5.15-2.34-8.23-3.81-2.68-1.2-5.75-2.58-9.23-4.12-3.48-1.54-7.29-3.11-11.44-4.72-6.56,5.62-13.78,10.34-21.68,14.15-7.9,3.82-15.65,5.92-23.28,6.32-4.29.27-8.75,0-13.36-.8-4.61-.8-8.75-2.14-12.43-4.01-3.68-1.88-6.62-4.32-8.83-7.32-2.21-3.01-3.11-6.66-2.71-10.94.67-6.96,3.58-11.84,8.73-14.65,5.15-2.81,11.79-4.22,19.91-4.22,3.78,0,7.88.3,12.3.9,4.41.6,8.89,1.37,13.45,2.31,4.55.94,9.1,2.01,13.65,3.21,4.55,1.2,8.9,2.41,13.04,3.61,3.21-4.01,6.56-8.43,10.04-13.24,3.48-4.82,6.55-9.37,9.23-13.65-5.22,3.88-10.2,6.82-14.95,8.83-4.75,2.01-8.86,3.54-12.34,4.62-4.28,1.2-8.16,1.87-11.64,2.01-8.7,0-15.65-.9-20.87-2.71s-9.29-4.25-12.21-7.32c-2.92-3.08-4.93-6.72-6.02-10.94s-1.77-8.73-2.04-13.55c-.27-6.15.82-13.58,3.27-22.28,2.45-8.69,5.96-17.76,10.54-27.19,4.57-9.43,10.11-18.76,16.6-28,6.49-9.23,13.61-17.49,21.37-24.79,7.76-7.29,16.02-13.21,24.79-17.76,8.76-4.55,17.83-6.82,27.2-6.82,3.08,0,6.22.6,9.43,1.8.13,0,.77.3,1.91.9,1.13.6,2.27,1.61,3.41,3.01,1.13,1.4,2.14,3.28,3.01,5.62.87,2.34,1.1,5.32.7,8.93-.14,3.88-1.67,9.1-4.62,15.65,0-.4-.5.34-1.51,2.21-1,1.87-2.48,4.28-4.41,7.22-1.94,2.95-4.32,6.19-7.12,9.73-2.81,3.55-6.12,6.86-9.93,9.93-3.81,3.08-8.06,5.65-12.75,7.73-4.68,2.08-9.77,3.11-15.25,3.11-4.01,0-6.82-1.24-8.43-3.71-1.61-2.47-2.08-5.12-1.4-7.93.53-2.68,1.67-4.82,3.41-6.42,1.74-1.61,3.48-2.51,5.22-2.71,1.74-.2,3.28.3,4.62,1.51,1.34,1.2,1.87,3.21,1.6,6.02,0,.54-.2,1.2-.6,2.01-.4.8-.7,1.54-.9,2.21-.2.67-.24,1.27-.1,1.8.13.54.67.8,1.6.8,2.01,0,4.42-.9,7.23-2.71,2.81-1.8,5.75-4.15,8.83-7.02,3.08-2.88,6.19-6.19,9.33-9.93,3.14-3.74,5.95-7.53,8.43-11.34,2.47-3.81,4.55-7.53,6.22-11.14,1.67-3.61,2.64-6.82,2.91-9.63s-.37-5.28-1.91-7.43c-1.54-2.14-4.05-3.48-7.52-4.01-3.88-.53-8.83.57-14.85,3.31-6.02,2.74-12.38,6.76-19.07,12.04-6.69,5.29-13.45,11.71-20.27,19.27-6.82,7.56-13.08,15.83-18.76,24.8-5.69,8.97-10.4,18.55-14.15,28.74-3.75,10.19-5.96,20.58-6.62,31.17-.41,6.16.56,11.19,2.9,15.08,2.35,3.89,5.46,6.8,9.34,8.75,3.88,1.94,8.36,2.95,13.45,3.02,5.08.07,10.27-.6,15.55-2.01,5.28-1.41,10.4-3.49,15.35-6.23,4.95-2.75,9.23-6.07,12.84-9.95,4.41-4.56,8.46-9.72,12.14-15.48,3.68-5.76,7.06-11.66,10.14-17.69,3.08-6.03,5.85-12.1,8.33-18.2,2.48-6.1,4.72-11.76,6.72-16.99,0-.27.37-.3,1.1-.1.73.2,1.47.64,2.21,1.3.73.67,1.34,1.67,1.81,3.01.47,1.34.57,3.08.3,5.22-.4,2.69-1.51,6.6-3.31,11.77-1.8,5.16-4.08,10.86-6.82,17.09-2.74,6.23-5.82,12.63-9.23,19.2-3.41,6.57-6.79,12.6-10.14,18.1-3.88,6.03-7.73,12.06-11.54,18.1-3.81,6.03-8.06,11.59-12.74,16.69,7.76,2.94,14.48,5.68,20.17,8.23,5.68,2.54,10.74,4.72,15.15,6.52,4.41,1.81,8.46,3.24,12.14,4.32,3.68,1.07,7.39,1.6,11.14,1.6,5.35,0,9.77-1.1,13.24-3.31,3.48-2.21,6.09-4.99,7.83-8.33,1.74-3.35,2.61-6.96,2.61-10.84s-.87-7.5-2.61-10.84c-1.74-3.35-4.32-6.12-7.73-8.33s-7.59-3.31-12.54-3.31c-2.54,0-4.92.4-7.12,1.2-2.21.8-4.18,1.87-5.92,3.21-1.74,1.34-3.15,2.91-4.21,4.72-1.07,1.8-1.67,3.71-1.81,5.72v2.01c0,.27.07.47.2.6.93-1.34,1.91-2.27,2.91-2.81s1.91-.8,2.71-.8c1.87,0,3.31.3,4.32.9,1,.6,1.74,1.27,2.21,2.01.47.73.73,1.47.8,2.21.07.73.1,1.3.1,1.71-.13,1.74-.6,3.14-1.4,4.21s-1.71,1.91-2.71,2.51c-1,.6-1.98,1-2.91,1.2-.94.2-1.67.3-2.21.3-2.68,0-4.75-.57-6.22-1.71-1.47-1.14-2.61-2.48-3.41-4.01s-1.31-3.11-1.51-4.71c-.2-1.61-.24-2.81-.1-3.61.13-2.01.67-3.91,1.61-5.72.93-1.81,1.94-3.45,3.01-4.92,1.2-1.6,2.54-3.15,4.01-4.62,4.01-3.35,7.89-5.69,11.64-7.02,3.74-1.34,7.36-2.01,10.84-2.01ZM90.61,210.93c6.82,0,13.45-1.51,19.87-4.52,6.42-3.01,12.31-6.86,17.66-11.54-8.03-2.95-16.26-5.45-24.68-7.53-8.43-2.08-16.06-3.11-22.88-3.11-3.75,0-6.92.67-9.53,2.01-2.61,1.34-4.48,2.98-5.62,4.92s-1.54,4.08-1.2,6.42c.34,2.34,1.51,4.48,3.51,6.42,2.01,1.94,4.89,3.58,8.63,4.92s8.49,2.01,14.25,2.01Z"/>
    <path class="cls-1" d="M206.61,124.58c-.54,1.48-.97,3.12-1.31,4.93-.33,1.81-.37,3.52-.1,5.14.27,1.61.93,2.98,2.01,4.13,1.07,1.14,2.81,1.64,5.22,1.51,3.34-.13,6.89-1.2,10.64-3.21,3.74-2.01,7.36-4.48,10.84-7.43,3.48-2.94,6.65-6.12,9.53-9.53,2.88-3.41,5.18-6.59,6.92-9.53,1.2,1.2,1.71,2.78,1.51,4.72-.2,1.94-.64,3.65-1.31,5.12-.8,1.74-2.38,4.12-4.72,7.12-2.34,3.01-5.25,5.99-8.73,8.92-3.48,2.94-7.42,5.48-11.84,7.63-4.41,2.14-9.1,3.22-14.05,3.22-3.21,0-5.89-.43-8.03-1.31-2.14-.87-3.81-2.04-5.02-3.51-1.2-1.47-2.01-3.18-2.41-5.12-.4-1.94-.53-3.91-.4-5.92.14-2.14.47-4.28,1-6.42.54-2.14,1.14-4.15,1.8-6.02.67-1.87,1.34-3.54,2.01-5.02.67-1.47,1.14-2.54,1.4-3.21,2.41-4.95,5.02-9.4,7.83-13.35,2.81-3.94,5.65-7.29,8.53-10.04,2.88-2.74,5.68-4.82,8.43-6.22,2.74-1.4,5.32-2.11,7.73-2.11,2.14,0,3.91.54,5.32,1.61s2.48,2.45,3.21,4.13c.73,1.68,1.17,3.52,1.3,5.54.13,2.01,0,3.96-.4,5.84-.54,2.28-1.54,4.7-3.01,7.25-1.47,2.55-3.61,5.07-6.42,7.55s-6.46,4.87-10.94,7.15c-4.48,2.28-10,4.43-16.56,6.44ZM236.91,91.12c0-2.01-.57-3.14-1.71-3.41-1.14-.27-2.58.1-4.32,1.1-1.74,1-3.68,2.54-5.82,4.62-2.14,2.08-4.18,4.35-6.12,6.82-1.94,2.48-3.75,5.02-5.42,7.63-1.67,2.61-2.84,5.05-3.51,7.32,2.14-.67,4.75-1.71,7.83-3.11,3.08-1.4,6.02-3.11,8.83-5.12s5.22-4.35,7.23-7.02c2.01-2.68,3.01-5.62,3.01-8.83Z"/>
    <path class="cls-1" d="M239.52,144.7c-1.07-1.47-1.81-3.48-2.21-6.02-.4-2.54.2-5.95,1.81-10.24,1.07-2.81,2.98-7.02,5.72-12.64,2.74-5.62,5.85-11.91,9.33-18.86v-.2c.53-1.07,1.04-2.11,1.51-3.11.47-1,.97-2.04,1.5-3.11,1.87-4.28,3.01-7.89,3.41-10.84.13.14.27.2.4.2.13.13.27.2.4.2s.33.07.6.2c.67.4,1.47.94,2.41,1.61.93.67,1.74,1.5,2.41,2.51.67,1,1.13,2.21,1.4,3.61.27,1.4.13,2.98-.4,4.72-.13.27-.24.6-.3,1-.07.4-.24.74-.5,1-.67,1.47-1.57,3.28-2.71,5.42-1.14,2.14-2.38,4.48-3.71,7.03,2.28-3.34,4.65-6.65,7.12-9.93,2.48-3.28,4.95-6.22,7.43-8.83,2.48-2.61,4.85-4.68,7.12-6.22,2.27-1.54,4.42-2.31,6.42-2.31.8.13,1.57.27,2.31.4.73.14,1.44.34,2.11.6,3.08,1.47,4.62,4.59,4.62,9.33s-2.01,11.41-6.02,19.97c-.67,1.2-1.3,2.48-1.91,3.81-.6,1.34-1.31,2.74-2.11,4.21-1.2,2.41-2.31,4.79-3.31,7.12-1,2.34-1.84,4.41-2.51,6.22-.67,1.81-1.07,3.31-1.2,4.52-.13,1.2.07,2.01.6,2.41.93.67,2.64,0,5.12-2.01,2.47-2.01,5.12-4.48,7.93-7.43,2.81-2.94,5.45-6.05,7.93-9.33,2.48-3.28,4.12-5.92,4.92-7.93.53.67,1,1.47,1.4,2.41.27.8.37,1.81.3,3.01-.07,1.2-.44,2.68-1.1,4.42-.67,1.6-2.11,3.98-4.32,7.12-2.21,3.15-4.82,6.16-7.83,9.03-3.01,2.88-6.29,5.22-9.83,7.02-3.55,1.81-7.06,2.31-10.54,1.51-1.87-.67-3.21-1.87-4.01-3.61-.8-1.47-1.17-3.61-1.1-6.42.07-2.81,1.04-6.69,2.91-11.64,1.6-4.01,3.34-7.86,5.22-11.54,1.87-3.68,3.68-7.19,5.42-10.54.53-1.07,1.1-2.24,1.71-3.51.6-1.27,1.1-2.44,1.51-3.51.4-1.07.63-2.04.7-2.91.07-.87-.24-1.44-.9-1.71-1.07-.4-2.61.2-4.62,1.8-2.01,1.61-4.08,3.55-6.22,5.82-2.41,2.54-5.02,5.55-7.83,9.03-4.68,5.62-8.5,10.54-11.44,14.75-2.95,4.22-5.25,7.83-6.92,10.84-1.67,3.01-2.88,5.49-3.61,7.43-.73,1.94-1.17,3.38-1.31,4.32v3.21c-2.14-.67-3.88-1.81-5.22-3.41Z"/>
    <path class="cls-1" d="M300.93,123.83c4.82-10.44,9-19.2,12.54-26.29,3.54-7.09,5.65-13.38,6.32-18.87,2.01.8,3.74,1.94,5.22,3.41,1.07,1.2,1.91,2.81,2.51,4.82.6,2.01.23,4.35-1.11,7.02-.8,1.61-1.94,3.78-3.41,6.52-1.47,2.75-3.01,5.69-4.61,8.83-1.61,3.15-3.18,6.36-4.72,9.63-1.54,3.28-2.88,6.29-4.01,9.03-1.14,2.74-1.91,5.09-2.31,7.02-.4,1.94-.2,3.11.6,3.51.8.67,2.57-.03,5.32-2.11,2.74-2.07,5.62-4.65,8.63-7.73,3.01-3.08,5.89-6.32,8.63-9.73,2.74-3.41,4.52-6.12,5.32-8.13.53.67,1,1.47,1.4,2.41.27.8.37,1.8.3,3.01-.07,1.2-.44,2.68-1.1,4.41-.67,1.74-2.21,4.22-4.62,7.43-2.41,3.21-5.29,6.32-8.63,9.33-3.35,3.01-6.89,5.45-10.64,7.32-3.75,1.87-7.36,2.41-10.84,1.6-1.87-.8-3.14-2.14-3.81-4.01-.67-1.6-.9-3.88-.7-6.82.2-2.94,1.44-6.82,3.71-11.64ZM327.62,75.06c-1.47-.67-2.38-2.11-2.71-4.32-.34-2.21.03-4.45,1.1-6.72,1.07-2.27,2.54-3.98,4.41-5.12,1.87-1.13,3.54-1.37,5.02-.7,1.47.67,2.37,2.11,2.71,4.32.33,2.21-.03,4.45-1.1,6.72-1.07,2.28-2.54,3.98-4.41,5.12-1.88,1.14-3.55,1.37-5.02.7Z"/>
    <path class="cls-1" d="M328.83,144.1c-1.87-1.34-3.14-2.94-3.81-4.82-.67-1.87-1-3.88-1-6.02,0-4.68.94-9.23,2.81-13.65,1.87-4.42,4.01-8.76,6.42-13.04,2.41-4.28,4.72-8.63,6.92-13.04,2.21-4.42,3.64-8.96,4.32-13.65.13.13.63.4,1.5.8.87.41,1.77,1.01,2.71,1.81.93.81,1.77,1.81,2.51,3.02.73,1.21,1.1,2.62,1.1,4.23,0,1.75-.47,3.56-1.4,5.44-.8,1.75-2.18,4.3-4.11,7.66-1.94,3.36-3.88,6.95-5.82,10.77-1.94,3.83-3.65,7.52-5.12,11.08-1.47,3.56-2.21,6.34-2.21,8.36s.47,3.36,1.4,4.03c.53.4,1.07.67,1.6.81.27.13.73.2,1.4.2,2.14,0,4.28-.74,6.42-2.21,2.14-1.48,4.18-3.32,6.12-5.54,1.94-2.21,3.74-4.6,5.42-7.15,1.67-2.55,3.11-4.9,4.32-7.05,1.2-2.15,2.14-3.89,2.81-5.24.67-1.34,1-1.94,1-1.81,3.08-5.91,5.89-11.28,8.43-16.11,2.54-4.83,4.08-9.19,4.61-13.09,1.34.54,2.61,1.28,3.81,2.21,1.07.81,2.01,1.85,2.81,3.12.8,1.28,1.2,2.79,1.2,4.53s-.47,3.56-1.4,5.44c-1.07,2.28-2.68,5.4-4.82,9.36-2.14,3.96-4.28,8.06-6.42,12.28-2.14,4.23-3.98,8.26-5.52,12.08-1.54,3.83-2.31,6.61-2.31,8.36,0,1.21.47,1.81,1.4,1.81,1.2,0,3.04-1.2,5.52-3.61,2.47-2.41,5.05-5.25,7.73-8.53,2.67-3.28,5.18-6.59,7.52-9.93,2.34-3.34,4.05-6.02,5.12-8.03,1.2.94,1.94,2.28,2.21,4.01.27,1.74,0,3.35-.8,4.82-1.07,1.74-2.64,4.25-4.72,7.53-2.08,3.28-4.52,6.52-7.32,9.72-2.81,3.2-5.89,5.98-9.23,8.33-3.35,2.35-6.69,3.52-10.04,3.52-.67,0-1.67-.13-3.01-.4-.94-.26-1.74-.72-2.41-1.37-.67-.52-1.24-1.27-1.71-2.25-.47-.98-.77-2.32-.9-4.02-2.41,2.36-4.99,4.29-7.73,5.79-2.75,1.5-5.65,2.25-8.73,2.25-1.74,0-3.35-.3-4.82-.9-1.47-.6-2.74-1.24-3.81-1.91Z"/>
    <path class="cls-1" d="M410.73,110.18c-.94-3.48-1.87-7.46-2.81-11.94-.94-4.48-1.27-8.8-1-12.94.27-4.15,1.47-7.66,3.61-10.54,2.14-2.88,5.89-4.45,11.24-4.72,2.71-.13,5.26.51,7.64,1.94s3.57,4.33,3.57,8.69c0,1.74-.61,3.04-1.84,3.91-1.22.87-2.55,1.3-3.98,1.3s-2.72-.43-3.88-1.3c-1.16-.87-1.73-2.17-1.73-3.91,0-1.47.48-2.88,1.43-4.21-2.68.13-4.35,1.51-5.02,4.13-.67,2.62-.91,5.69-.7,9.19s.7,7,1.5,10.5c.8,3.5,1.41,6.12,1.81,7.87,1.6,7.38,1.97,14.07,1.1,20.1-.87,6.02-2.61,11.11-5.22,15.25-2.61,4.15-5.92,7.19-9.93,9.13-4.01,1.94-8.43,2.51-13.25,1.71-5.22-.94-8.96-3.15-11.24-6.62-2.27-3.48-3.34-7.43-3.21-11.84.13-4.42,1.24-8.8,3.31-13.15,2.08-4.35,4.85-7.86,8.33-10.54,2.41-1.88,4.85-2.93,7.32-3.13s4.62-.07,6.42.4c1.81.47,3.08,1.07,3.81,1.81s.57,1.11-.5,1.11c-3.21.14-6.12,1-8.73,2.61-2.61,1.61-4.81,3.58-6.62,5.92-1.81,2.34-3.18,4.89-4.12,7.63-.94,2.74-1.4,5.39-1.4,7.93s.57,4.75,1.71,6.62c1.13,1.88,2.84,3.15,5.12,3.81,2.94.8,5.82.57,8.63-.7,2.81-1.27,5.12-3.51,6.92-6.72,1.81-3.21,2.94-7.29,3.41-12.24.47-4.95-.1-10.64-1.71-17.06Z"/>
  </g>
  <g>
    <path class="cls-1" d="M330.3,279.49c-.66,1.06-1.63,2.79-2.89,5.17-1.26,2.39-2.89,5.11-4.87,8.16-1.99,3.05-4.38,6.17-7.16,9.35-2.79,3.18-5.97,6.13-9.55,8.85s-7.59,4.94-12.04,6.67c-4.45,1.72-9.32,2.58-14.62,2.58-6.63,0-11.97-1.13-16.02-3.38-4.05-2.26-7.13-4.94-9.25-8.06s-3.51-6.27-4.18-9.45c-.66-3.18-.99-5.64-.99-7.36,0-5.84.96-10.94,2.89-15.32,1.92-4.38,4.38-8.06,7.36-11.04s6.2-5.2,9.65-6.66c3.45-1.46,6.63-2.19,9.55-2.19,3.85.4,6.93,1.06,9.25,1.99,2.32.93,4.41,2.39,6.27,4.38s2.79,4.71,2.79,8.16c0,1.73-.33,3.15-.99,4.28-.66,1.13-1.43,2.06-2.29,2.79s-1.79,1.26-2.78,1.59c-.99.33-1.89.5-2.69.5-2.12,0-3.91-.7-5.37-2.09-1.46-1.4-2.19-3.02-2.19-4.88,0-1.19.4-2.39,1.19-3.58.79-1.2,1.86-2.06,3.18-2.59-.53-.53-1.16-.96-1.89-1.29-.73-.33-1.69-.5-2.89-.5-.93,0-2.62.23-5.07.7-2.46.47-4.94,1.63-7.46,3.48-2.52,1.86-4.74,4.65-6.66,8.36-1.93,3.71-2.89,8.89-2.89,15.52,0,1.59.26,3.58.8,5.97.53,2.39,1.59,4.64,3.18,6.77s3.78,3.91,6.57,5.37c2.79,1.46,6.37,1.99,10.74,1.59,5.3-.4,10.18-2.09,14.62-5.07,4.44-2.98,8.52-6.7,12.24-11.14,3.71-4.45,7.16-9.42,10.35-14.92,3.18-5.5,6.17-11,8.95-16.51,2.78-5.5,5.4-10.81,7.86-15.92,2.45-5.11,4.87-9.45,7.26-13.03-8.49,5.04-14.39,9.19-17.71,12.43-3.32,3.25-4.97,6-4.97,8.26,0,.66.07,1.13.2,1.39,0,.27.06.47.2.6-2.52-1.99-4.25-3.85-5.17-5.57-.93-1.72-1.39-3.31-1.39-4.77,0-2.39,1.26-4.64,3.78-6.77,2.52-2.12,5.54-4.01,9.05-5.67,3.51-1.66,7.09-3.12,10.74-4.38,3.65-1.26,6.67-2.22,9.05-2.88.13-.13.2-.23.2-.3,0-.07.07-.16.2-.3-1.46-.92-3.15-2.45-5.07-4.57-1.92-2.12-2.89-4.71-2.89-7.76,0-3.31,1.46-6.63,4.38-9.95-.13.27-.27.66-.4,1.19-.27,1.06-.4,2.19-.4,3.38,0,1.86.43,3.95,1.29,6.27.86,2.32,2.69,4.61,5.47,6.87,2.52-4.78,5-9.48,7.46-14.13,2.45-4.64,4.87-8.92,7.26-12.83,2.39-3.91,4.67-7.36,6.86-10.34,2.19-2.98,4.28-5.27,6.27-6.87-7.16,0-14.49.17-21.98.5-7.5.33-14.79.93-21.89,1.79-7.1.86-13.76,1.99-19.99,3.38-6.24,1.4-11.67,3.19-16.31,5.37-4.64,2.19-8.33,4.81-11.04,7.86-2.72,3.05-4.08,6.57-4.08,10.55v.99c1.19-.8,2.65-1.19,4.38-1.19,1.99,0,3.68.63,5.07,1.89,1.39,1.26,2.09,2.82,2.09,4.67,0,2.26-.86,4.05-2.59,5.37-1.73,1.33-3.98,1.99-6.77,1.99s-5.47-1.23-7.66-3.68c-2.19-2.45-3.28-6-3.28-10.64,0-5.97,1.82-11.07,5.47-15.32,3.65-4.24,8.39-7.83,14.23-10.74,5.83-2.92,12.43-5.24,19.79-6.96,7.36-1.72,14.79-3.05,22.28-3.98,7.49-.93,14.66-1.52,21.49-1.79,6.83-.26,12.7-.4,17.61-.4h10.14c1.73,0,2.75.03,3.09.1.33.07.43.1.3.1-.14,0,.53,0,1.99,0,11.94,0,21.62-.66,29.05-1.99,7.43-1.33,13.1-2.92,17.01-4.78,3.91-1.86,6.23-3.88,6.96-6.07.73-2.19.36-4.21-1.1-6.07-1.59.93-3.18,1.39-4.78,1.39-1.99,0-3.68-.66-5.07-1.99-1.4-1.32-2.09-2.91-2.09-4.77,0-2.25.92-4.05,2.79-5.37,1.85-1.33,4.18-1.99,6.96-1.99,1.19,0,2.45.23,3.78.7,1.32.47,2.65,1.43,3.98,2.89,1.85,1.99,2.98,4.31,3.38,6.96.4,2.66.26,5.34-.4,8.06-.67,2.72-1.76,5.24-3.28,7.56-1.53,2.32-3.28,4.08-5.27,5.27-2.79,1.86-6.5,3.52-11.14,4.97-4.12,1.33-9.49,2.52-16.11,3.58-6.64,1.06-14.92,1.66-24.87,1.79-1.73,1.86-3.71,4.35-5.97,7.46-2.26,3.12-4.65,6.73-7.16,10.85-2.52,4.11-5.14,8.59-7.86,13.43-2.72,4.84-5.47,9.85-8.26,15.02,3.18-.4,6.03-.59,8.55-.59,1.59,0,3.11.13,4.58.4,1.06.27,2.09.7,3.08,1.29.99.59,1.49,1.49,1.49,2.69,0,1.06-.47,1.89-1.39,2.49-.93.6-2.09,1.06-3.48,1.39-1.39.33-2.85.57-4.38.7-1.53.13-2.82.2-3.88.2-1.46,0-2.95-.17-4.48-.5-1.53-.33-2.82-.7-3.88-1.1-4.64,8.75-9.05,17.25-13.23,25.47-4.18,8.23-7.59,14.99-10.25,20.29Z"/>
    <path class="cls-1" d="M364.92,292.03c-3.18-.66-5.4-2.02-6.67-4.08-1.26-2.06-2.02-4.21-2.29-6.47-.4-2.65-.2-5.57.6-8.75,1.46-7.03,3.75-13.43,6.86-19.2,3.11-5.77,6.5-10.68,10.15-14.72,3.65-4.05,7.39-7.13,11.24-9.25s7.16-3.18,9.95-3.18c4.11.13,6.99,1.19,8.65,3.18s2.69,3.91,3.09,5.77c1.59-3.45,2.59-6.57,2.98-9.35,2.12.8,3.85,1.93,5.17,3.38,1.06,1.19,1.86,2.79,2.39,4.78.53,1.99.13,4.31-1.2,6.96-.79,1.73-1.92,3.88-3.38,6.47-1.46,2.58-2.98,5.41-4.58,8.46-1.59,3.05-3.15,6.17-4.67,9.35-1.53,3.18-2.82,6.1-3.88,8.75-1.06,2.65-1.79,4.91-2.19,6.77-.4,1.86-.27,2.98.4,3.38.53.4,1.52.2,2.98-.6,1.46-.79,3.12-1.92,4.97-3.38,1.86-1.46,3.85-3.21,5.97-5.27,2.12-2.06,4.11-4.11,5.97-6.17,1.86-2.06,3.48-4.08,4.87-6.07,1.4-1.99,2.35-3.64,2.89-4.97.53.67.99,1.46,1.39,2.39.26.8.37,1.79.3,2.98-.07,1.19-.43,2.65-1.1,4.38-.66,1.73-2.19,4.12-4.57,7.16-2.39,3.05-5.21,6-8.46,8.86-3.25,2.85-6.77,5.17-10.55,6.96-3.78,1.79-7.39,2.29-10.84,1.49-1.06-.4-1.99-.99-2.79-1.79-.66-.66-1.26-1.69-1.79-3.09-.53-1.39-.66-3.21-.4-5.47-3.32,3.45-6.8,6.24-10.45,8.36-3.65,2.12-7.33,2.79-11.04,1.99ZM365.12,276.7c-.53,1.86-.73,3.32-.6,4.38.13,1.06.4,1.86.8,2.39.53.53,1.12.93,1.79,1.19,3.05.4,6.2-.73,9.45-3.38,3.25-2.65,6.27-5.74,9.05-9.25,2.79-3.51,5.14-6.93,7.06-10.25,1.92-3.31,3.15-5.44,3.68-6.37,1.06-2.39,2.39-4.9,3.98-7.56,1.06-3.18,1.39-5.7.99-7.56-.4-1.86-.93-3.25-1.59-4.18-.93-1.06-2.06-1.79-3.38-2.19-2.26-.13-4.55.67-6.87,2.39-2.32,1.73-4.61,4.01-6.86,6.86-2.26,2.86-4.38,6.04-6.37,9.55-1.99,3.52-3.75,6.86-5.27,10.04-1.53,3.19-2.82,6.07-3.88,8.66-1.06,2.58-1.73,4.34-1.99,5.27Z"/>
    <path class="cls-1" d="M442.71,237.91c-.4,1.06-1.13,2.62-2.19,4.68-1.06,2.06-2.32,4.41-3.78,7.06,2.11-3.18,4.25-6.27,6.43-9.25s4.38-5.6,6.63-7.86c2.24-2.25,4.41-4.08,6.52-5.47,2.11-1.39,4.15-2.09,6.13-2.09,2.24,0,3.89.73,4.94,2.19s1.59,3.18,1.59,5.17c0,3.45-1.11,8.02-3.33,13.73,3.2-4.64,6.57-8.56,10.1-11.74s6.97-4.78,10.3-4.78c2.4,0,4.16.66,5.3,1.99,1.13,1.33,1.7,3.05,1.7,5.17,0,2.39-.87,5.77-2.62,10.15-1.74,4.38-3.63,8.92-5.64,13.63s-3.89,9.12-5.64,13.23c-1.75,4.12-2.62,7.1-2.62,8.95,0,1.2.4,1.79,1.19,1.79,1.2,0,3.15-1.09,5.87-3.28,2.72-2.19,5.5-4.77,8.35-7.76s5.5-6.03,7.96-9.16c2.45-3.11,4.08-5.67,4.88-7.66.26.27.53.66.79,1.19.53,1.06.8,2.26.8,3.58,0,.66-.07,1.39-.2,2.19s-.4,1.73-.8,2.79c-.66,1.59-2.02,3.85-4.08,6.77-2.06,2.92-4.58,5.8-7.56,8.65-2.98,2.85-6.2,5.34-9.65,7.46-3.45,2.12-6.84,3.18-10.15,3.18-2.52,0-4.48-.83-5.87-2.49-1.39-1.66-2.09-3.88-2.09-6.66,0-1.59.23-3.41.7-5.47.47-2.06,1.24-4.48,2.32-7.26.94-2.52,2.11-5.14,3.52-7.86,1.41-2.72,2.79-5.34,4.13-7.86,1.34-2.52,2.46-4.87,3.33-7.06.87-2.19,1.31-4.08,1.31-5.67,0-1.33-.53-1.99-1.59-1.99-.79,0-1.79.56-2.98,1.69-1.19,1.13-2.39,2.39-3.58,3.78-1.19,1.39-2.26,2.78-3.18,4.18-.93,1.39-1.59,2.29-1.99,2.69-1.33,1.73-3.12,4.15-5.37,7.26-2.26,3.12-4.51,6.43-6.77,9.95-2.25,3.52-4.21,7.03-5.87,10.54-1.66,3.52-2.49,6.54-2.49,9.05,0,.8.2,1.46.6,1.99-.53,0-.99-.03-1.4-.1-.4-.06-.86-.16-1.39-.3-1.06-.26-1.92-.73-2.59-1.4-.66-.66-1.23-1.56-1.69-2.69-.47-1.13-.7-2.69-.7-4.67,0-3.18.89-6.9,2.69-11.14s3.78-8.49,5.97-12.73c2.19-4.24,4.18-8.19,5.97-11.84,1.79-3.64,2.69-6.53,2.69-8.65,0-.4-.1-.8-.3-1.19-.2-.4-.5-.6-.89-.6-.93,0-2.19.87-3.78,2.59-1.59,1.73-3.25,3.65-4.97,5.77-1.99,2.39-4.05,5.11-6.17,8.16-4.11,5.7-7.56,10.61-10.34,14.72-2.79,4.11-5.04,7.69-6.77,10.74-1.73,3.05-2.95,5.77-3.68,8.16-.73,2.39-1.1,4.64-1.1,6.77-1.19-.27-2.25-.8-3.18-1.59-.8-.66-1.49-1.62-2.09-2.88-.59-1.26-.89-3.02-.89-5.27,0-1.59.33-3.48.99-5.67.66-2.19,1.66-4.84,2.98-7.96s3.05-6.83,5.17-11.14c2.12-4.31,4.64-9.45,7.56-15.42,1.46-2.91,2.81-5.9,4.08-8.95,1.26-3.05,2.02-5.77,2.29-8.16-.13,0,.13.1.8.3.66.2,1.42.63,2.29,1.29.86.66,1.66,1.59,2.39,2.79.73,1.19,1.1,2.72,1.1,4.57v1.49c0,.47-.14,1.03-.4,1.69Z"/>
    <path class="cls-1" d="M498.02,269.54c4.78-10.34,8.92-19.03,12.43-26.06,3.51-7.03,5.6-13.26,6.27-18.7,1.99.8,3.71,1.92,5.17,3.38,1.06,1.19,1.89,2.78,2.49,4.77.6,1.99.23,4.31-1.09,6.96-.8,1.59-1.93,3.75-3.38,6.47-1.46,2.72-2.98,5.64-4.57,8.75-1.59,3.12-3.16,6.3-4.68,9.55-1.52,3.25-2.85,6.24-3.98,8.95-1.13,2.72-1.89,5.04-2.28,6.96-.4,1.92-.2,3.08.59,3.48.8.66,2.55-.03,5.27-2.09,2.72-2.06,5.57-4.6,8.56-7.66,2.98-3.05,5.83-6.27,8.55-9.65,2.72-3.38,4.48-6.07,5.27-8.06.53.66.99,1.46,1.39,2.39.26.79.37,1.79.3,2.98-.07,1.19-.43,2.65-1.09,4.38-.67,1.73-2.19,4.18-4.58,7.36-2.39,3.19-5.24,6.27-8.56,9.25-3.31,2.98-6.83,5.41-10.54,7.26-3.71,1.86-7.3,2.39-10.74,1.59-1.86-.8-3.12-2.12-3.78-3.98-.66-1.59-.89-3.85-.7-6.77.2-2.92,1.43-6.77,3.68-11.54ZM524.48,221.2c-1.46-.66-2.36-2.09-2.69-4.28-.33-2.19.03-4.41,1.09-6.66s2.52-3.95,4.38-5.07c1.85-1.13,3.51-1.36,4.97-.7,1.46.66,2.35,2.09,2.69,4.28.33,2.19-.03,4.41-1.1,6.66-1.06,2.26-2.52,3.95-4.38,5.07-1.86,1.13-3.52,1.36-4.97.7Z"/>
    <path class="cls-1" d="M537.01,265.36c-.53,1.06-1.03,2.09-1.49,3.09-.47.99-.96,2.02-1.49,3.08-1.46,3.32-2.49,6.14-3.09,8.46-.59,2.32-.5,3.75.3,4.28.53.4,1.52.2,2.98-.6,1.46-.79,3.12-1.92,4.97-3.38,1.86-1.46,3.85-3.21,5.97-5.27,2.12-2.06,4.11-4.11,5.97-6.17,1.86-2.06,3.48-4.08,4.88-6.07,1.39-1.99,2.35-3.64,2.88-4.97.53.67.99,1.46,1.39,2.39.66,1.86.47,4.31-.59,7.36-.66,1.73-2.22,4.12-4.67,7.16-2.46,3.05-5.31,6-8.56,8.86-3.25,2.85-6.77,5.17-10.55,6.96-3.78,1.79-7.39,2.29-10.84,1.49-1.33-.4-2.39-1.13-3.18-2.19-.66-.93-1.22-2.22-1.69-3.88-.47-1.66-.37-3.94.3-6.86.27-1.59.67-3.12,1.2-4.58.53-1.46.93-2.52,1.19-3.18,1.46-3.18,3.38-7.19,5.77-12.04,2.39-4.84,4.97-10.11,7.76-15.82.66-1.33,1.33-2.65,1.99-3.98.66-1.33,1.33-2.72,1.99-4.18.66-1.46,1.33-2.92,1.99-4.38.66-1.46,1.33-2.91,1.99-4.38,2.25-4.78,4.45-9.48,6.57-14.13s3.98-9.05,5.57-13.23c1.59-4.18,2.91-7.99,3.98-11.44,1.06-3.45,1.66-6.37,1.79-8.75,2.12.66,3.85,1.79,5.18,3.38,1.06,1.46,1.79,3.58,2.19,6.37.4,2.79-.2,6.5-1.79,11.14-1.86,5.44-4.34,11.44-7.46,18.01-3.12,6.56-6.4,13.36-9.85,20.39-2.39,4.64-4.74,9.25-7.06,13.83-2.32,4.58-4.48,8.99-6.47,13.23Z"/>
    <path class="cls-1" d="M618.98,267.75c-.66,1.73-2.19,4.12-4.57,7.17-2.39,3.05-5.24,6-8.56,8.85-3.32,2.85-6.83,5.21-10.55,7.06-3.71,1.85-7.29,2.39-10.74,1.59l-.2-.2c-1.73,3.98-3.45,8.16-5.17,12.54-1.73,4.38-3.38,8.82-4.97,13.33-.93,2.52-2.19,5.74-3.78,9.65-1.59,3.91-3.61,7.96-6.07,12.14-2.46,4.18-5.34,8.26-8.65,12.24-3.31,3.98-7.2,7.29-11.64,9.95-4.44,2.65-9.45,4.34-15.02,5.07-5.57.73-11.81.03-18.7-2.09-4.64-1.46-8.68-3.71-12.14-6.77-3.05-2.65-5.74-6.14-8.06-10.45-2.32-4.31-3.28-9.85-2.88-16.61.66-6.1,2.32-11.54,4.97-16.31,2.26-4.12,5.8-7.89,10.64-11.34,4.84-3.45,11.64-5.3,20.39-5.57,4.25,0,8.03.73,11.34,2.19,2.79,1.19,5.34,3.18,7.66,5.97s3.42,6.77,3.28,11.94c-.26,1.86-.79,3.51-1.59,4.97-.66,1.33-1.62,2.49-2.89,3.48-1.26.99-3.02,1.42-5.27,1.29-1.59,0-3.05-.27-4.38-.8-1.06-.4-2.02-1.13-2.88-2.19-.86-1.06-1.29-2.65-1.29-4.78.4-1.86.99-3.45,1.79-4.78.66-1.06,1.69-1.89,3.08-2.49,1.4-.59,3.28-.43,5.67.5-.4-1.33-1.06-2.65-1.99-3.98-.8-1.06-1.99-2.06-3.58-2.98s-3.78-1.53-6.57-1.79c-2.78-.26-5.63.13-8.55,1.2-2.92,1.06-5.64,2.72-8.16,4.97-2.52,2.25-4.68,5.04-6.47,8.35-1.79,3.31-2.89,7.16-3.28,11.54-.4,4.38-.1,8.32.89,11.84.99,3.51,2.52,6.57,4.58,9.15,2.06,2.59,4.54,4.61,7.46,6.07,2.92,1.46,6.1,2.39,9.55,2.79,3.85.4,7.66-.2,11.44-1.79,3.78-1.59,7.46-4.35,11.04-8.26,3.58-3.91,7.16-9.09,10.74-15.52,3.58-6.43,7.09-14.29,10.54-23.58.93-2.12,1.86-4.38,2.79-6.77.8-2.12,1.72-4.54,2.79-7.26,1.06-2.72,2.25-5.6,3.58-8.66-1.99,1.46-4.12,2.52-6.37,3.19-2.26.66-4.57.86-6.96.59-1.46-.26-2.72-.59-3.78-.99-1.06-.4-2.05-.92-2.98-1.59-2.39-1.73-3.81-4.01-4.27-6.87-.47-2.85-.47-5.6,0-8.26.47-2.65,1.09-5,1.89-7.06s1.19-3.15,1.19-3.28c1.46-2.91,3.05-6.17,4.78-9.75,1.72-3.58,3.58-7.36,5.57-11.34.53-1.06,1.03-2.09,1.49-3.09.46-.99.96-2.02,1.49-3.08,1.85-4.24,2.98-7.83,3.38-10.74.13.13.26.2.4.2.13.13.26.2.4.2.13,0,.33.07.59.2.66.4,1.46.93,2.39,1.59.92.66,1.72,1.49,2.39,2.49s1.13,2.19,1.4,3.58c.26,1.39.13,2.95-.4,4.67-.27.8-.53,1.46-.8,1.99-.79,1.59-1.86,3.65-3.18,6.17-1.33,2.52-2.79,5.31-4.38,8.35-1.46,2.92-2.86,5.74-4.18,8.46-1.33,2.72-2.59,5.34-3.78,7.86-1.06,2.65-1.63,4.71-1.69,6.17-.07,1.46.16,2.59.7,3.38.53.93,1.33,1.53,2.39,1.79,2.39.53,4.84-.07,7.36-1.79,2.52-1.72,4.94-3.94,7.26-6.66,2.32-2.72,4.41-5.57,6.27-8.55s3.38-5.47,4.58-7.46c0-.26.07-.47.2-.6.13-.26.26-.5.4-.7s.26-.43.4-.7c.13-.26.26-.56.4-.9.13-.33.26-.63.4-.89h.2c1.06-1.99,2.06-3.88,2.98-5.67.92-1.79,1.85-3.55,2.79-5.27.92-1.86,1.79-3.65,2.58-5.37.8-1.72,1.52-3.25,2.19-4.57.13-.26.26-.56.4-.9.13-.33.26-.63.4-.89.26-.26.46-.56.6-.89.13-.33.33-.63.59-.9.93-1.33,1.92-2.32,2.98-2.98,1.99-1.33,3.98-1.79,5.97-1.39,1.99.4,3.58.86,4.78,1.39.26.27.46.4.6.4.13,0,.26.07.4.2s.26.2.4.2c-2.26,2.26-4.51,5.44-6.77,9.55-.27.4-.93,1.52-1.99,3.38-1.06,1.86-2.36,4.18-3.88,6.96s-3.12,5.87-4.77,9.25c-1.66,3.38-3.22,6.73-4.68,10.04-1.99,4.25-3.55,7.96-4.67,11.14-1.13,3.18-1.16,5.11-.1,5.77.92.67,2.72,0,5.37-1.99,2.65-1.99,5.5-4.48,8.56-7.46,3.05-2.98,5.93-6.1,8.65-9.35,2.72-3.25,4.48-5.87,5.27-7.86.53.66.99,1.46,1.39,2.39.26.8.37,1.83.3,3.09-.07,1.26-.43,2.69-1.1,4.27Z"/>
  </g>
  <path class="cls-1" d="M54.57,345.8c4.95-15.76,11.39-31.18,20.02-45.53,8.66-14.25,19.53-27.68,33.7-37.55,7.05-4.91,14.9-8.98,23.47-11.21,4.27-1.14,8.71-1.83,13.26-1.92,4.54-.19,9.33.64,13.68,2.08,8.97,2.82,16.2,8.99,21.99,15.46,5.8,6.58,10.45,13.75,14.8,20.87,8.54,14.29,15.97,29,26.53,40.39,5.24,5.67,11.41,10.17,18.43,12.54,3.63,1.14,6.96,1.81,10.6,1.59,3.62-.17,7.34-1.02,10.98-2.28,14.59-5.39,27.75-15.68,39.44-26.87,5.89-5.63,11.37-11.72,16.5-18.1,5.03-6.44,9.89-13.13,13.14-20.74-2.32,7.96-6.49,15.32-11,22.28-4.54,6.99-9.73,13.54-15.26,19.8-5.58,6.23-11.63,12.07-18.23,17.36-6.57,5.32-13.81,9.99-21.95,13.31-4.09,1.61-8.43,2.86-13.04,3.29-4.6.53-9.52-.23-13.77-1.5-8.77-2.65-16.44-7.99-22.56-14.24-12.28-12.67-19.78-27.92-28.34-41.72-4.16-6.98-8.49-13.75-13.56-19.61-5.06-5.81-10.95-10.66-17.75-13.07-6.7-2.62-14.32-2.32-21.81-.6-7.45,1.78-14.69,4.98-21.35,9.21-13.34,8.51-24.58,20.53-33.94,33.81-9.49,13.26-17.07,27.93-24,42.92Z"/>
  <path class="cls-1" d="M112.27,183.03c-10.28-2.79-20.9-4.12-31.18-2.76-10.28,1.23-20.04,4.95-28.65,10.45-8.6,5.53-16.19,12.61-22.66,20.62-3.24,4-6.29,8.18-9.06,12.54-2.74,4.31-5.03,8.79-6.87,13.52-7.58,18.88-8.12,40.36-3.48,60.44,4.77,20.13,15.13,39.11,30.56,53.89-17.61-12.22-30.41-31.34-36.55-52.3-6.18-20.95-6.1-44.16,2.07-64.98,2.07-5.16,4.71-10.16,7.74-14.79,3.01-4.57,6.22-9.02,9.82-13.17,7.23-8.23,15.53-15.76,25.25-21.1,9.6-5.49,20.57-8.67,31.53-9.01,10.98-.32,21.78,2.21,31.47,6.65Z"/>
  <path class="cls-1" d="M49.82,346.69c-3.91-23.84.18-49.17,11.12-71.26,5.46-11.06,12.65-21.32,21.37-30.22,8.76-8.84,19.22-16.19,30.93-20.99,11.72-4.83,24.8-6.33,37.25-4.98,12.49,1.47,24.61,5.48,35.34,11.73,10.81,6.14,20.26,14.39,28.07,23.83,7.61,9.6,13.84,20.25,17.74,31.69-10.89-21.49-28.05-39.33-48.81-49.99-10.39-5.24-21.62-8.78-33.1-9.69-11.48-1.1-22.97.41-33.55,4.78-21.35,8.56-38.38,26.35-49.82,46.7-11.3,20.56-17.4,44.3-16.55,68.42Z"/>
  <path class="cls-1" d="M45.97,349.06c-12.12-20.33-17.39-45.34-13.47-69.37,2.08-11.94,6.48-23.76,14.13-33.4,7.49-9.79,18.42-16.43,29.82-19.49-10.59,5.31-19.71,12.86-26.03,22.27-6.35,9.42-10.15,20.39-12.05,31.62-1.96,11.26-1.92,22.87-.59,34.34,1.47,11.47,4.21,22.87,8.18,34.03Z"/>
  <path class="cls-1" d="M342.06,271.69c-2.05,18.39-8.36,36.72-19.17,52.34-10.7,15.62-25.73,28.81-43.86,35.87-9.04,3.44-18.79,5.46-28.64,4.99-9.81-.6-19.56-3.44-27.76-8.62-16.57-10.2-28.07-26.28-34.87-43.45,9.71,15.65,22.28,29.75,37.91,38.03,15.55,8.5,34.26,8.26,50.49,1.63,16.47-6.24,30.63-18.07,41.74-32.11,11.16-14.15,18.87-30.94,24.16-48.69Z"/>
  <path class="cls-1" d="M362.77,154.37c-15.57,3.87-30.97,7.89-46.1,12.57-7.54,2.41-15.05,4.84-22.34,7.76-7.31,2.85-14.49,5.96-21.21,9.75-6.71,3.72-13.13,8.05-18.01,13.49-2.56,2.64-4.46,5.69-5.82,8.89-.65,1.52-1.25,3.45-1.72,5.26-.5,1.81-.9,3.63-1.15,5.45-1.1,7.22.43,14.77,5.83,19.92,5.22,5.28,13.1,7.9,20.97,8.96-7.93.65-16.57-.74-23.54-6.02-3.46-2.62-6.14-6.36-7.74-10.51-1.58-4.18-1.96-8.66-1.69-12.96.13-2.16.43-4.28.83-6.36.42-2.08.92-4,1.7-6.2,1.54-4.2,3.81-8.13,6.66-11.38,5.65-6.62,12.7-11.37,19.84-15.49,14.56-7.83,30.08-12.89,45.79-16.53,15.71-3.62,31.67-5.98,47.72-6.6Z"/>
  <path class="cls-1" d="M149.26,13.01C160.05,5.68,172.68-.07,186.67,0c3.48.1,7.05.66,10.48,2.09,3.42,1.37,6.66,3.86,8.74,7,4.28,6.26,5.26,13.84,4.49,20.73-1.61,13.98-8.7,26.11-17.02,36.39-8.44,10.33-18.59,18.95-29.43,26.31,9.47-9.06,18.39-18.58,25.86-29.02,7.29-10.43,13.46-22.04,14.72-34.26.53-6-.2-12.22-3.36-16.86-3-4.64-8.63-6.96-14.75-7.42-6.1-.56-12.49.32-18.7,1.81-6.28,1.41-12.37,3.7-18.42,6.25Z"/>
  <path class="cls-1" d="M151.49,38.49c-4.07,3.62-7.86,7.46-11.37,11.58-3.59,4.03-6.96,8.25-10.15,12.59-6.37,8.69-12.28,17.7-17.42,27.14-5.19,9.4-9.63,19.21-13.09,29.37-1.74,5.08-3.15,10.27-4.13,15.55-.52,2.63-1.01,5.31-1.26,7.95-.2,2.67-.16,5.4-.19,8.12-.46-2.69-.86-5.38-.96-8.14-.08-2.78.1-5.5.39-8.24.64-5.45,1.73-10.85,3.16-16.16,2.9-10.62,7.34-20.75,12.6-30.37,5.33-9.58,11.47-18.72,18.52-27.1,7.04-8.34,14.73-16.33,23.9-22.29Z"/>
  <path class="cls-1" d="M265.91,201.48c-3.51,4.54-5.6,9.82-5.91,15.12-.27,5.2,1.22,10.83,4.97,13.71,3.78,2.91,9.56,3.22,14.61,1.86,5.14-1.39,9.85-4.55,13.58-8.91-2.39,5.18-6.88,9.74-12.61,11.86-5.59,2.13-12.52,2.34-18.01-1.67-5.32-4.36-6.53-11.33-5.61-17.2.91-6.03,4.4-11.37,8.99-14.78Z"/>
  <path class="cls-1" d="M103.36,253.7c10.3-9.67,23.8-16.49,38.33-17.78,7.22-.77,14.68.22,21.58,2.39,6.97,2.1,13.44,5.46,19.58,9.25,6.01,4.02,11.6,8.62,16.66,13.74,4.93,5.24,9.47,10.83,13.36,16.83,7.87,11.95,13.78,25.07,17.7,38.68-2.78-6.51-5.67-12.95-9.11-19.1-3.31-6.2-6.96-12.21-11.11-17.84-4.17-5.61-8.59-11.01-13.52-15.92-4.96-4.87-10.35-9.25-16.13-13.05-5.84-3.69-12.01-6.91-18.57-9.02-3.26-1.1-6.6-1.94-9.98-2.45-1.69-.25-3.37-.42-5.09-.45-1.71-.11-3.43-.13-5.15-.03-6.89.22-13.73,1.88-20.19,4.47-6.54,2.47-12.63,6.09-18.34,10.27Z"/>
  <path class="cls-1" d="M433.97,132.17c4.52-2.69,9.71-4.91,15.44-4.35,2.83.39,5.65,1.94,7.42,4.31,1.81,2.32,2.78,5.07,3.37,7.81,1.21,5.52.62,11.11-.51,16.47-1.25,5.34-3.31,10.59-6.67,15.15-6.77,9.18-17.63,14.05-28.23,15.82-10.73,1.84-21.66.83-31.89-2.01,5.29.59,10.55,1.02,15.8.83,5.23-.06,10.46-.6,15.49-1.81,9.96-2.37,19.75-7.03,25.63-15.19,3.02-3.94,4.94-8.75,6.22-13.67,1.26-4.92,1.82-10.11,1.16-15.05-.36-2.45-1.05-4.87-2.39-6.85-1.3-2.02-3.38-3.33-5.75-3.89-4.88-1.13-10.23.52-15.09,2.44Z"/>
</svg>