<?xml version="1.0" encoding="UTF-8"?>
<svg id="Capa_1" xmlns="http://www.w3.org/2000/svg" version="1.1" viewBox="0 0 928.94 902.74">
  <!-- Generator: Adobe Illustrator 29.8.2, SVG Export Plug-In . SVG Version: 2.1.1 Build 3)  -->
  <defs>
    <style>
      .st0 {
        fill: #fff;
      }
    </style>
  </defs>
  <path class="st0" d="M109.01,479.64c0-67.05-3.65-91.43-4.02-158.48-.05-9.71,2.57-15.68,11.01-21.4,42.34-28.71,83.36-59.41,126.25-87.24,42.88-27.82,87.23-53.42,131.46-79.07,7-4.06,16.84-4.81,25.28-4.52,96.77,3.33,193.53,7.07,290.28,10.89,26.56,1.05,53.13,2.27,79.63,4.21,18.92,1.38,18.79,3.09,18.66,22.06-.25,36.51.7,73.02,1.31,109.53,1.25,75.8,2.5,151.59,3.98,227.38.32,16.26,2.32,32.51,2.09,48.74-.08,5.91-2.85,13.44-7.05,17.37-56.19,52.57-112.92,104.57-169.36,156.87-9,8.34-17.13,17.62-25.91,26.22-7.78,7.63-16.72,9.82-28.09,9.11-21.72-1.35-43.6.22-65.4-.12-118.65-1.85-237.3-3.75-355.94-6.03-25.44-.49-33.37-9.1-33.42-34.03-.14-66.27-.05-132.55-.05-198.82-1.51,0,.8-42.69-.72-42.69v.02h0ZM130.89,500.57l-1.94.03c1.24,67.4,2.44,134.8,3.87,202.19.08,3.55,2.13,7.05,3.26,10.57,3.22-1.16,6.84-1.72,9.6-3.56,21.74-14.49,43.33-29.21,64.94-43.9,32.8-22.29,65.53-44.67,98.38-66.87,12.17-8.23,12.22-9.45-.81-16.66-18.59-10.28-22.82-29.97-8.63-45.76,6.43-7.15,14.72-13.63,23.46-17.47,11.81-5.19,19.81-8.53,13.9-24.79-3.05-8.41-4.71-12.03-13.66-13.55-32.55-5.51-45-23-42.65-55.88,1.4-19.62,9.47-36.38,21.7-50.52,10.82-12.51,11.88-26.88,13.92-41.61,1.08-7.81-2.21-10.91-9.89-10.82-53.95.63-107.89,1.29-161.84,1.52-10.25.04-13.82,3.82-13.75,14.05.34,54.34.16,108.68.16,163.02h-.02ZM617.32,421.78c-13.87,25.75-8.79,36.18,12.21,41.72,6.41,1.69,13.41,5.88,17.44,11.03,12.88,16.47,2.54,61.14-16.24,70.43-3.63,1.8-10.82-.16-14.34-2.95-1.86-1.48-.66-9.26,1.48-12.8,4.04-6.72,10.32-12.06,14.63-18.66,6.93-10.6,3.51-21.45-8.32-26.13-5.38-2.12-11.65-1.84-17.39-3.21-4.03-.96-7.93-2.65-11.73-4.37-3.6-1.64-8.82-6.16-10.11-5.19-3.79,2.88-8.2,7.75-8.42,12.04-.92,18.2.02,36.49-.6,54.71-.34,10.16,3.88,13.48,13.39,12.97,13.83-.74,27.68-.97,41.52-1.4,40.83-1.29,81.66-2.82,122.5-3.72,12.17-.27,16.39-4.95,16.18-17.3-1.14-69.44-1.19-138.9-2.43-208.34-.58-32.49-1.58-65.1-4.99-97.38-3.04-28.78-3.54-30.08-28.65-13.24-41.18,27.62-82.2,55.48-122.97,83.7-3.79,2.63-7.83,8.68-7.52,12.84,1.87,25.64,4.92,51.2,7.64,76.78.43,4.09,1.15,8.15,1.42,10.01,6.89,2.15,12.14,2.68,16.09,5.24,11.37,7.36,13.68,6.99,18.66-5.61,1.3-3.31,1.94-6.87,3.12-10.23,3.25-9.25,8.07-10.76,14.38-3.3,7.92,9.35,15.66,19.17,21.39,29.9,2.57,4.8.06,12.32-.15,18.6-5.74-1.03-12.63-.41-16.95-3.45-7.6-5.34-11.07-4.1-13.89,4.06-1.02,2.96-2.74,5.73-4.46,8.39-6.72,10.43-12,11.18-20.54,1.96-4.75-5.12-8.27-11.37-12.34-17.12v.02h-.01ZM420.16,616.37c-.75,1.99-1.51,3.98-2.26,5.96,7.33,3.83,14.81,7.4,21.96,11.55,10.84,6.29,21.78,12.53,31.89,19.88,2.18,1.58.99,7.79,1.35,11.86-3.49-.54-7.25-.44-10.43-1.74-14.56-5.97-29.05-12.14-43.39-18.62-7.1-3.21-14.73-6.2-20.5-11.18-6.4-5.53-7.73-14.65.3-19.31,9.22-5.36,20.03-10.09,30.43-10.74,11.09-.69,22.49,3.8,33.79,5.81,3.75.67,7.61.66,11.42.97.41-1.43.83-2.86,1.24-4.29-6.5-3.08-12.74-7.91-19.55-8.9-15.17-2.21-30.75-4.21-45.94-3.15-18.85,1.32-37.4,7.43-56.24,8.35-11.36.56-20.46,3.13-29.68,9.19-47.07,30.93-94.42,61.44-141.56,92.26-12.43,8.13-24.45,16.87-36.66,25.33.14,1.14.28,2.28.42,3.42,4.62.9,9.24,2.52,13.87,2.58,54.75.64,109.5,1.18,164.25,1.48,73.8.41,147.61.48,221.41.99,9.98.07,14.56-3.06,14.25-13.65-.61-20.98.11-42.01-.71-62.97-.98-24.95-2.72-49.89-4.93-74.77-.28-3.14-5.4-5.84-8.28-8.75-.68,3.34-2.18,6.75-1.91,10.01,1.22,14.58,4.24,29.12,4.24,43.67-.03,45.43-33.19,81.29-78.21,85.5-15.4,1.44-30.9,1.73-46.31,3.1-19.17,1.7-34.85-6-49.09-17.52-10.16-8.21-13.19-23.53-7.2-33.24,7.68-12.45,24.82-20.72,39.07-17.06,5.2,1.34,12.94,6.91,13.1,10.81.37,8.99-8.2,4.99-13.59,5.73-4.3.59-11.64,2.1-11.96,4.11-.85,5.22-.24,12.34,2.9,16.12,3.69,4.45,10.51,8.32,16.23,8.72,19.27,1.36,38.68,1.77,57.98,1.07,7.62-.28,16.29-2.76,22.43-7.12,37.71-26.8,44.13-72.26,30.62-104.72-1.28-3.06-4.12-7.6-6.47-7.74-12.63-.77-25.33-.36-40.06-.36,10.38,11.59,19.46,19.9,26.32,29.75,15.85,22.8,12.19,53.84-7.83,71.29-5.18,4.51-10.88,10.73-20.25,5.31,1.65-2.11,2.59-3.77,3.95-4.98,14.71-13.05,14.36-29.11-1.56-40.45-7.39-5.26-15.3-10.29-23.71-13.5-11.34-4.32-23.39-6.79-35.13-10.05h-.01ZM415.53,388.89c.66-.27,1.46-.46,2.11-.89.98-.66,1.86-1.47,2.77-2.23,29.45-24.55,63.19-31.75,100.21-23.92,4.34.92,11.11,6.11,11.03,9.18-.22,8.58-7.77,4.77-12.89,4.87-15.74.33-31.87-1.18-47.12,1.76-17.75,3.42-34,12.51-41.54,30.47-13.53,32.2,10.69,71.2,45.7,75.02,23.01,2.51,54.76-17.03,48.72-48.72-2.94-15.39-10.6-25.77-22.85-34.41-4.7-3.32-7.77-8.94-11.59-13.51,6.82-2,13.55-4.65,20.51-5.68,2.96-.44,6.76,2.02,9.6,3.99,13.67,9.47,21.42,22.55,25.1,38.87,6.42,28.48-5.47,55.97-31.63,70.37-23.13,12.74-54.33,7.66-73.43-11.92-4.98-5.11-9.87-10.34-15.15-15.13-8.48-7.69-36.53-.98-38.55,10.26-1.81,10.07-2.79,23.27,2.3,30.65,3.94,5.71,17.83,6.13,27.28,6.06,11.37-.09,22.67-3.83,34.09-4.78,7.35-.61,15.12-.02,22.27,1.75,20.64,5.11,35.43,18.61,47.82,35.26,5.55,7.45,20.05,10.59,30.29,5.16,3.53-1.87,6.31-8.88,6.14-13.42-2.42-67.79-5.51-135.56-8.08-203.35-.31-8.21-3.43-11.54-11.34-11.48-46.78.34-93.55.52-140.33,1.03-3.18.04-9.03,2.29-9.08,3.66-.35,11.17-2.79,23.89,1.64,33.16,5.11,10.67,16.58,18.28,25.96,27.91h.04ZM755.72,575.15c-5.32-1.34-7.5-2.4-9.66-2.35-53.46,1.33-106.92,2.8-160.39,4.16-6.36.16-9.32,2.7-9.13,9.4,1.26,43.16,2.24,86.32,3.59,129.48.13,4.04,2.2,8.02,3.37,12.02,4.03-1.87,8.83-2.88,11.96-5.73,48.08-43.65,95.96-87.54,143.85-131.4,4.84-4.43,9.52-9.05,16.39-15.59h.02,0ZM155.66,297.35c.34,1.39.67,2.78,1.01,4.17,3.67.68,7.33,1.89,11.01,1.95,48.74.83,97.49,1.69,146.24,1.85,3.79.01,9.15-4.33,11.12-8.06,6.45-12.21,8.94-27.66,17.94-37.14,19.6-20.66,18.45-44.9,18.29-69.72-.03-3.96.2-7.95-.23-11.87-.32-2.93-.69-7.18-2.54-8.24-1.81-1.05-5.89.57-8.33,2.07-45.63,27.91-91.41,55.58-136.6,84.18-19.93,12.61-38.64,27.15-57.9,40.81h0ZM474.59,307.01c0,.38.68-.19.68.19,24.96,0,49.92.03,74.89,0,24.08-.03,33.13-14.69,21.65-35.04-1.55-2.76-3.32-5.4-5.11-8.01-5.55-8.11-11.55-14.8-23.11-13.54-2.99.33-8.17-3.45-9.51-6.56-7.35-17.05-24.84-22.27-41.31-12.29-2.83,1.71-9.33,2-11.09.11-14.96-16.06-33.99-10.74-50.95-8.31-13.23,1.89-25.53,10.35-38.24,15.88-7.47,3.25-10.48,8.65-9.8,16.98.97,11.84,1.53,23.76,1.3,35.62-.2,10.21,3.9,14.25,14.03,14.12,25.75-.32,50.17,1.05,75.92,1.05l.66-.2h-.01ZM534.58,160.19c21.44,15.02,21.62,35.8,19.43,57.41-.04.39-.27.86-.13,1.17,1.33,3.02,1.93,7.64,4.23,8.77,18.24,8.96,24.27,26.43,31.06,43.31,4.81,11.96,5.53,12.63,16.57,5,43.34-29.94,86.65-59.92,129.67-90.32,4.32-3.05,6.57-9.02,9.79-13.63-5.09-1.9-10.13-5.25-15.29-5.47-55.81-2.36-111.63-4.28-167.46-6.19-9.28-.32-18.58-.04-27.86-.04h0ZM363.93,410.92l.27-.02c0-8.32-.28-16.66.07-24.96.39-9.27-4.73-12.68-12.93-13.52-16.06-1.63-36.17,9.39-44.08,25.11-8.33,16.55-8.99,34.37-.56,50.41,6.93,13.19,21.57,14.99,35.52,14.37,4.65-.21,9.22-2.1,13.84-3.15,7.46-1.69,10.26-6.22,9.63-13.85-.93-11.43-1.22-22.92-1.78-34.39h.02ZM381.83,213.8c1.52.5,3.05,1.01,4.57,1.51,1.76-2.77,3.86-5.38,5.24-8.33,13.12-28.21,41.39-42.47,71.6-37.58,13.64,2.21,26.54-2.64,40.12-9.5-2.94-1.74-3.9-2.78-4.9-2.82-34.43-1.41-68.86-2.83-103.31-3.85-2.43-.07-6.89,2.69-7.14,4.57-2.46,18.61-4.22,37.31-6.19,55.99h.01ZM496.26,552.25c-6.6-13.56-17.46-21.2-30.62-22.36-14.69-1.29-29.7.89-44.57,1.72-7.82.44-15.74,2.39-23.39,1.57-12.92-1.39-14.99.55-12.17,13.41,1.72,7.86,7.24,8.7,13.35,8.67,30.03-.14,60.06-.42,90.08-.79,2.15-.03,4.29-1.27,7.31-2.22h.01ZM366.81,545.7c-1.81-5.28,4.11-18.04-10.11-15.95-11,1.62-21.84,6.39-31.95,11.39-8.41,4.16-9.62,12.45-4.67,20.29,4.79,7.59,10.06,16.25,20.96,14.39,14.87-2.54,25.65-15.14,25.77-30.12h0ZM577.04,427.63c1,.11,2,.21,2.99.32,1.57-4.28,4.27-8.5,4.52-12.86,1.66-29.54,3.06-59.09,3.77-88.66.09-3.74-4.31-7.59-6.62-11.4-2.98,4.11-8.53,8.21-8.54,12.33-.07,30.85.91,61.7,1.73,92.55.07,2.59,1.4,5.15,2.15,7.73h0ZM535.71,202.99c-.32-17.99-14.14-27.25-32.9-21.85-5.31,1.53-9.67,6.38-14.47,9.71,4.97,6.11,8.96,13.64,15.2,17.88,5.13,3.49,12.96,2.88,19.51,4.44,9.57,2.28,13.61-1.42,12.67-10.18h-.01ZM362.69,341.5c-.5-16.97-3.02-20.34-14.37-20.13-10.34.19-13.23,5.79-13.08,21.93.13,13.05,9.45,9.91,16.82,10.7,10.79,1.16,11.67-5.38,10.63-12.5h0ZM359.04,273.6c-1.51-.55-3.02-1.1-4.53-1.65-3.48,7.92-7.45,15.68-10.12,23.87-.77,2.37,2.21,5.96,3.47,8.99,3.72-1.89,10.27-3.33,10.66-5.76,1.34-8.29.51-16.93.51-25.44h0ZM441.08,183.32c-13.26,2.91-18.68,11.6-24.44,21.41,13.38,2.26,21.8-5.08,24.44-21.41ZM388.16,401.99v35.33c11.61-10.48,11.72-23.15,0-35.33ZM361.57,481.86c-1.93,3.28-3.38,4.62-3.39,5.96-.02,5.11.31,10.23.93,15.3.05.4,4.85.68,4.88.54.9-4.75,1.74-9.55,1.95-14.38.06-1.5-1.73-3.09-4.36-7.42h-.01Z"/>
  <path class="st0" d="M518.48,435.17c-.4,9.07-4.51,13.8-12.69,13.32-8.44-.5-15.83-5.55-14.24-13.81.96-5.01,8.72-11.17,14.32-12.26,8.47-1.65,11.82,5.86,12.61,12.75Z"/>
  <path class="st0" d="M313.25,430.87c8.29-5.37,13.7-11.48,17.35-10.57,4.43,1.11,9.77,7.84,10.4,12.71.95,7.28-5.71,11.69-12.61,10.03-4.45-1.07-7.94-6.14-15.15-12.17h0Z"/>
</svg>