<?xml version="1.0" encoding="UTF-8"?>
<svg id="Capa_4" xmlns="http://www.w3.org/2000/svg" version="1.1" viewBox="0 0 410.43 467.21">
  <!-- Generator: Adobe Illustrator 29.8.2, SVG Export Plug-In . SVG Version: 2.1.1 Build 3)  -->
  <defs>
    <style>
      .st0 {
        fill: #1d1d1b;
      }
    </style>
  </defs>
  <path class="st0" d="M406.05,280.73h-43.16l-33.42-86.38-32.12,76.12L248.57,4.99l-.33,2.22-83.04,163.31c-.58,0-1.15,0-1.72.03-1.8-1.35-3.78-2.45-5.66-3.69-3.61-2.38-7.47-4.01-11.95-3.02-2.5-1.56-5.26-1.13-8.19-.75-1.6.2-3.4-.05-4.81.88-.5.32-.84.75-1.12,1.23-2.98-.26-5.92-.02-8.82.87-1.37.42-2.72.95-4.08,1.45-1.47.26-2.92.62-4.36,1.03-.5.15-1.01.23-1.54.3-.68-.31-1.37-.58-2.07-.77-.68-.19-1.39-.32-2.09-.37-.46-.03-.91.07-1.33.24-.03,0-.05.04-.08.05-.35.08-.69.19-1.05.36-.52.26-.9.9-.95,1.5-.16.61-.05,1.16.34,1.58,1.78,1.83,2.28,4.29,3.3,6.49,2.29,4.98,3.62,10.34,6.03,15.29,1.69,3.46,3.06,7.1,4.9,10.47,1.51,2.76,3.17,5.53,6.13,7.14.99.55,2.52.61,3.14,1.39-.06,1.3-.14,2.6-.23,3.9-.05.23-.11.46-.15.69-.1.68-.45.95-1.08,1.12-4.32,1.16-6.45,4.27-7.26,8.43-.75,3.84.93,9.2,6.34,10.67,1.89.51,2.62,2.68,3.98,4,.12.12,0,.55-.09.81-.49,1.57-.95,2.8-3.02,3.35-3.93,1.02-5.87,4.19-6.4,8.07-.56,4.15.51,7.7,4.47,9.87.35.2.84.3.92.73-.17.07-.33.13-.5.2-.67.28-1.33.6-1.99.9-.64.29-1.4.69-1.51,1.45-.02.02-.05.04-.07.06h.05c0,.07-.04.13-.03.21.05.53.41.98.98.98.4,0,.82-.31.94-.71.11-.05.22-.1.31-.15.29-.14.58-.26.87-.4.51-.23,1.01-.47,1.53-.68.58.07,1.11.33,1.61.97,1.77,2.18,4.24,3.21,6.94,3.73,3.97.76,7.96,1.46,11.99,1.8,6.33.53,12.32-3.01,14.43-8.51.79-2.06.95-4.2,1-6.36.02-.82.17-1.02,1.11-.77,1.1.28,1.75.86,2.19,1.58.4,0,.81.05,1.19.2,2.7,1.06,5.63,1.46,8.65,1.94,1.26.2,2.47.27,3.74.35,1.17.08,2.23.46,3.12,1.15,0-.12-.03-.22-.03-.34,1.65.81,3.32.92,4.87,1.95,3.07,2.04,6.48,3.49,10.19,4.02,1.03.15,1.87.34,2.36,1.35.36.74,1.05,1.19,1.72,1.62,1.91,1.21,3.73,2.53,5.53,3.89l-24.02,159.06-91.92-201.56-48.67,49.38H4.38v8.32h42.4l42.63-43.27,98.52,216.02L249.38,55.37l44.81,243.96,34.95-82.79,28.06,72.53h48.85v-8.32h0ZM126.76,224.67c-1,2.74-1.25,5.52-.7,8.39.09.45.59,1.06-.03,1.36-.52.25-1.11-.08-1.54-.5-.36-.36-.7-.74-.84-.9-1.99-2.87-1.98-7.1-.19-9.8,1.03-1.55,2.16-.27,3.18-.07,1.05.22.29,1.04.13,1.51h0ZM124.8,255.43c-.14.58-.06,1.58-1.03,1.52-1.07-.07-.87-1.05-.88-1.73-.04-3.49,1.34-6.24,4.43-8.05-1.54,2.57-1.84,5.48-2.53,8.28h0ZM134,216.79c-1,.45-1.92,1.28-3.18,1.15.17-1.89.27-3.79.36-5.68.16-.03.33-.06.54-.07,2.14-.16,2.93.21,3.36,2.27.22,1.05-.09,1.78-1.07,2.34h0ZM210.57,256.66c-3.73-3.23-7.76-6.12-11.39-9.44-.88-.81-1.96-1.91-3.28-1.49-1.48.48-2.63-.03-3.91-.51-1.97-.72-3.79-1.84-5.86-2.28-.69-.15-1.27-.55-1.68-1.12-1.7-2.35-3.2-4.85-5.08-7.09-.23-.28-.36-.56-.09-.91.34-.43.69-.3,1.03-.04.27.21.54.43.81.63,1.72,1.24,2.33,1.23,3.73-.32,1.11-1.22,2.09-2.55,3.15-3.83.35-.43.45-.89.37-1.44-.23-1.55-.78-3.1.38-4.55.28-.35.03-.88-.07-1.32-.6-2.66-2.28-4.81-3.35-7.26-.54-1.23-.93-2.65-2.19-3.4-1.95-1.15-2.64-3.04-3.19-5.05-.2-.71.05-1.16.43-1.87.55-.99,1.72-1.17,2.03-2.06.88-2.54,3.79-4.14,3.41-7.27-.02-.13.16-.29.27-.4,2.37-2.28,2.25-5.19,2.05-8.12-.07-.98-.53-1.71-1.44-1.89-1.19-.23-1.49-1.04-1.76-2.02-.33-1.2-.78-2.38-1.17-3.57-.15-.44-.28-.83-.74-1.08-1.75-.96-5.39-.18-6.39,1.55-1.95,3.4-5.57,5.86-5.7,10.27,0,.15-.13.35-.25.42-.35.21-.81.13-.67-.32.56-1.64-.08-3.31.38-5.03.7-2.6.64-5.18-.34-7.56.03,0,.07,0,.1,0,.44-.13.82-.35,1.15-.62.42-.27.79-.6,1.08-1.03.7-1.09.64-2.51-.09-3.51-.34-.62-.85-1.15-1.47-1.51-1.01-.58-2.19-.77-3.35-.91L248,9.87l-37.42,246.78h0Z"/>
</svg>