<?xml version="1.0" encoding="UTF-8"?>
<svg id="Capa_1" data-name="Capa 1" xmlns="http://www.w3.org/2000/svg" viewBox="0 0 1667.75 535.85">
  <defs>
    <style>
      .cls-1 {
        fill: #e52421;
      }

      .cls-2 {
        fill: #fff;
      }

      .cls-3 {
        fill: #f3e600;
      }
    </style>
  </defs>
  <g>
    <path class="cls-1" d="M518.28,505.09c-13.61,0-26.4-.65-38-1.92-86.1-9.44-163.95-35.15-231.4-76.4-53.94-33-86.06-67.09-98.15-79.93l-.09-.09c-1.33-1.41-2.47-2.62-3.34-3.51l-50.92-52.05,62.99,36.53c32.6,18.91,60.62,27.34,90.83,27.34,13.69,0,26.62-1.6,40.3-3.3,14.34-1.78,29.16-3.62,45.5-3.62,1.72,0,3.46.02,5.17.06.91-.03,1.82-.05,2.7-.05,20.15,0,31.49,8.04,40.61,14.5,7.92,5.61,14.17,10.04,25.92,10.07,17.74-.47,35.29-16.61,44.75-41.13,4.6-13.69,4.78-24.65.5-30.87-3.71-5.39-10.44-6.8-15.48-7.03-6.6.07-20.47,3.87-23.31,4.84l-.1.03c-36.94,12.38-75.66,18.92-111.97,18.92-27.5,0-53.64-3.68-77.71-10.93-26.28-7.92-50.08-20.11-70.75-36.25-42.02-32.78-78.28-76.12-102.09-122.04l-28.01-54,43.71,42.3c23.75,22.99,58.87,39.42,107.35,50.25,17.8,3.95,37.39,5.87,59.88,5.87,20.62,0,41.66-1.6,62.22-3.35-3.25-3.89-6.71-8.39-10.32-13.44-10-13.98-18.84-28.97-22-37.31l-13.6-35.92,29.29,24.83c32,27.13,73.76,42.65,124.13,46.14,5.27.2,10.8.3,16.46.3,74.45,0,180.01-16.55,342.27-53.67,15.15-3.46,30.21-6.92,46.14-10.58,159.16-36.59,339.32-78.02,465.58-78.94v-.02h8.49v.02c14.5.11,28.12.79,40.55,2.04,75.25,5.96,138.5,23.11,187.91,50.96,44.57,25.13,76.96,58.22,96.28,98.37,16.08,33.43,22.33,71.21,18.09,109.28-4,35.86-17.08,71.01-37.82,101.64l-28.14,41.58,10.21-49.16c5.29-25.45,2.85-50.03-7.06-71.11-20.2-43.51-68.72-68.45-133.13-68.45-7.29,0-14.84.32-22.44.96h-.19c-76.78,4.32-183.98,39.18-327.8,106.58l-.12.06c-126.67,57.36-270.24,122.38-455.27,142.52-3.84.44-8.26.99-13.37,1.64-23.56,2.96-59.17,7.44-95.28,7.44Z"/>
    <path class="cls-2" d="M1281.62,35c15.95,0,30.88.68,44.37,2.03,74.71,5.92,137.38,22.89,186.24,50.44,43.8,24.69,75.6,57.16,94.53,96.51,15.73,32.71,21.85,69.69,17.69,106.96-3.93,35.18-16.76,69.66-37.11,99.73l-16.08,23.76,5.84-28.09c5.48-26.35,2.93-51.86-7.37-73.78-20.92-45.06-70.85-70.9-136.97-70.9-7.4,0-15.07.33-22.79.97h-.08s-.08.01-.08.01c-77.25,4.34-184.96,39.32-329.28,106.95l-.03.02-.03.02c-126.38,57.23-269.62,122.1-453.99,142.17-3.86.44-8.3,1-13.44,1.64-23.45,2.95-58.9,7.4-94.75,7.4-13.46,0-26.09-.64-37.53-1.9-85.47-9.37-162.74-34.88-229.64-75.8-53.45-32.7-85.29-66.49-97.27-79.22-1.38-1.47-2.58-2.74-3.48-3.66l-29.1-29.74,35.99,20.87c33.29,19.3,61.96,27.91,92.97,27.91,13.95,0,27-1.62,40.82-3.34,14.21-1.76,28.9-3.59,44.98-3.59,1.73,0,3.47.02,5.19.06.9-.03,1.81-.05,2.68-.05,18.8,0,29.08,7.29,38.15,13.72,8.21,5.82,15.29,10.84,28.43,10.85,19.51-.49,38.61-17.72,48.69-43.94,5.14-15.25,5.14-27.26,0-34.72-4.72-6.86-12.86-8.62-18.91-8.87-7.43.04-22.28,4.22-24.77,5.08h-.03s-.03.02-.03.02c-36.52,12.23-74.77,18.7-110.63,18.7-27.08,0-52.81-3.62-76.48-10.75-25.77-7.77-49.11-19.72-69.36-35.53-41.55-32.41-77.39-75.26-100.94-120.65l-16-30.86,24.98,24.17c24.33,23.55,60.12,40.34,109.39,51.34,18.11,4.02,38,5.98,60.8,5.98s47.72-2.08,71.02-4.09c-5.5-5.76-11.1-13.03-15.67-19.43-9.81-13.71-18.44-28.31-21.48-36.34l-7.77-20.52,16.74,14.19c32.72,27.74,75.33,43.6,126.65,47.14,5.34.21,10.95.31,16.69.31,74.78,0,180.63-16.58,343.22-53.78,15.15-3.46,30.21-6.92,46.15-10.58,160.73-36.95,342.91-78.84,468.87-78.85v2.84h0v-2.84M1290.1,26.5h-8.49s-8.5,0-8.5,0v.06c-126.5,1.8-304.67,42.76-462.28,79-15.86,3.65-30.85,7.09-46.14,10.58-161.94,37.04-267.21,53.56-341.33,53.56-5.58,0-11.04-.1-16.23-.3-49.41-3.43-90.32-18.62-121.6-45.14l-16.74-14.19-25.11-21.29,11.66,30.78,7.77,20.52c3.33,8.79,12.17,23.81,22.52,38.28,1.87,2.61,3.69,5.08,5.48,7.39-17.92,1.46-36.1,2.67-53.91,2.67-22.17,0-41.46-1.89-58.96-5.77-47.69-10.65-82.14-26.72-105.32-49.15l-24.98-24.17L10.47,73.09l24.01,46.28,16,30.86c24.09,46.45,60.76,90.29,103.25,123.44,21.08,16.46,45.35,28.89,72.14,36.96,24.47,7.37,51.02,11.11,78.93,11.11,36.76,0,75.95-6.62,113.33-19.14h.01s.04-.02.04-.02h.02s.05-.02.05-.02c2.5-.86,15.88-4.5,21.85-4.61,4.05.2,9.35,1.27,12.05,5.19,3.44,5,3.08,14.84-1,27.02-4.47,11.55-10.86,21.29-18.51,28.19-7.1,6.41-14.81,9.91-22.29,10.13-10.36-.04-15.56-3.72-23.41-9.29-9.61-6.81-21.56-15.28-43.07-15.28-.89,0-1.8.01-2.72.04-1.71-.04-3.44-.06-5.15-.06-16.61,0-31.56,1.86-46.03,3.65-13.55,1.68-26.35,3.27-39.77,3.27-29.43,0-56.78-8.25-88.7-26.76l-35.99-20.87-53.99-31.31,43.65,44.61,29.1,29.74c.84.86,2.01,2.1,3.36,3.53,12.21,12.97,44.61,47.36,99.04,80.66,67.98,41.58,146.43,67.49,233.15,77,11.75,1.29,24.69,1.95,38.46,1.95,36.38,0,72.14-4.49,95.81-7.47,5.1-.64,9.5-1.19,13.35-1.63,185.67-20.21,329.57-85.38,456.53-142.87l.06-.03.09-.04c143.34-67.17,250.02-101.9,326.17-106.17h.11s.09-.01.09-.01h.09s.08-.01.08-.01c7.5-.63,14.93-.94,22.1-.94,62.68,0,109.79,24.05,129.26,65.98,9.53,20.27,11.86,43.93,6.76,68.47l-5.84,28.09-8.76,42.14,24.12-35.64,16.08-23.76c21.12-31.21,34.44-67.01,38.52-103.55,4.34-38.86-2.05-77.44-18.48-111.59-19.7-40.95-52.68-74.67-98.02-100.23-49.93-28.15-113.74-45.47-189.66-51.5-11.32-1.13-23.61-1.8-36.64-2v-.07h0Z"/>
  </g>
  <path class="cls-3" d="M1163.69,241.77c-46.63-9.71,34.3-77.5,35.28-104.6,2.39-66.17-49.47-95.07-78.47-44.99-68.52,118.33,52,311.92,78.57,113.83,0,0-18.37,32.52-35.38,35.76ZM1164.08,115.75c8.26,6.54,4.47,21.83-.7,31.6-4.56,10.36-24.69,34.58-24.64,42.25-4.31-1.1-11.24-94.42,25.34-73.85Z"/>
  <path class="cls-3" d="M1016.5,356.1c-5.59,3-10.61,3.31-10-2.92,24-246-34-253.08-34-253.08,96-21,83-30,71.01,119.63-9.12,113.86,44.99-42.55,44.99-42.55,12.28,182.93,36,120.92-72,178.92Z"/>
  <path class="cls-3" d="M995.69,350.1c-17.76-18.24-61.08-99.19-48.48-107.82,1.35-.93,2.7-1.87,3.84-3.05,39.37-40.73,49.2-122.08-2.55-131.05-12-2.08-74,13.92-107,20.92,55.25,30.35,98.96,188.96,68,267.08-1.29,3.26-.17,4.44,3,2.92l85-35c2.83-1.38.39-11.75-1.81-14ZM938.58,213.76c-6.32,11.81-5.94,9.09-12.24-7.51-8.77-23.85-16.42-53.65-3.13-60.15h.01c26.15-4.28,24.76,49.53,15.36,67.66Z"/>
  <path class="cls-3" d="M765.91,195.02c-23.92-23.12,39.57-73.75,56.89-50.85,21.61,22.98-38.49,66.64-56.89,50.85Z"/>
  <path class="cls-3" d="M886.5,408.1c-22.46,8.59-48.1,16.86-70,23-4.26,1.45-3.72-1.03-1-4.92,62.77-89.81-96.46-179.62,11.47-235.12,29.46-15.14-9.67,119.11,65.03,182.54,11.44,9.72,8.52,29.13-5.5,34.5Z"/>
  <path class="cls-3" d="M738.06,288.5c17.25-24.49,19.33-50.21,13.74-83.7-10.3-61.7-112.3-29.78-156.3-23.7,77.46,67.06,63.86,214.85,27.3,280.42-1.3,14.58,68.7.66,106.7-8.34-76.53-160.26,32.27-140.67,11-22-7.04,37.33,59,6,67-21-27.59-29.9-32.13-107.79-69.44-121.68ZM714.65,254.06c-29.11,105.88-42.18-34.55-18.22-36.88,16.6-2.83,20.67,22.46,18.22,36.88Z"/>
  <path class="cls-3" d="M553.5,471.1c-37.22-22.56-21.59-102.87-22.61-164.8-18.96-2.43-34.59-22.39-37.64-42.08,23.45,11.41,32.57,13.82,35.55,10.92-4.17-30.73,4.7-65.05-45.3-78.04,191-28,50.75,119.84,143.67,63.03-1.57,25.05-22.95,52.51-49.01,45.11-20.13,55.5,24.59,124.37,46.42,36.63,14.36,47.73-2.38,156.9-71.08,129.23Z"/>
  <path class="cls-3" d="M1398.36,173.48c-80.72-70.89-17.86-108.38-17.86-108.38-215-35-22.95,64.54-127,191,47.64-18.21,90.17-25.17,90.17-25.17-51.71-113.86,17.97-90.17,11.21-2.94,64.76-12.46,104.94-.53,43.48-54.51ZM1327.05,140.05c-7.44,1.32-13.55-22.27-13.55-38.81s10.27-11.33,10.27-11.33c17.28,6.32,10.72,48.83,3.28,50.14Z"/>
</svg>