<?xml version="1.0" encoding="UTF-8"?>
<svg id="Capa_1" data-name="Capa 1" xmlns="http://www.w3.org/2000/svg" viewBox="0 0 266.93 88.43">
  <defs>
    <style>
      .cls-1 {
        fill: #fff;
      }
    </style>
  </defs>
  <g>
    <path class="cls-1" d="M105.36,22.97c0,4.94-1.73,11.85-10.21,11.85-5.47,0-8.78-3.02-9.98-7.48l5.56-1.58c.58,2.25,2.21,3.65,4.32,3.65,3.45,0,4.27-2.73,4.27-6.62V0h6.04v22.97Z"/>
    <path class="cls-1" d="M123.44,10.26c6.95,0,12.52,4.84,12.52,12.09s-5.56,12.28-12.52,12.28-12.52-5.04-12.52-12.28,5.56-12.09,12.52-12.09ZM123.44,29.83c4.56,0,6.67-3.88,6.67-7.48s-2.11-7.39-6.67-7.39-6.67,3.79-6.67,7.39,2.11,7.48,6.67,7.48Z"/>
    <path class="cls-1" d="M154.13,17.07c-1.01-1.34-2.93-2.49-5.04-2.49-1.82,0-3.69.67-3.69,2.49s1.77,2.25,4.99,3.02c3.41.82,7.43,2.35,7.43,6.86,0,5.61-4.56,7.67-9.59,7.67-3.55,0-7.24-1.34-9.45-3.79l3.79-3.55c1.25,1.63,3.4,2.88,5.9,2.88,1.68,0,3.69-.67,3.69-2.73,0-1.92-1.77-2.49-5.28-3.31-3.4-.82-6.81-2.21-6.81-6.52,0-5.13,4.6-7.34,9.16-7.34,3.31,0,6.76,1.15,8.63,3.5l-3.74,3.31Z"/>
    <path class="cls-1" d="M184.73,24.27h-17.5c.24,3.26,3.21,5.66,6.57,5.66,2.88,0,4.8-1.15,6.09-2.97l3.84,3.07c-2.25,3.07-5.52,4.6-9.88,4.6-7.1,0-12.37-4.56-12.37-12.04s5.23-12.33,12.18-12.33c6.43,0,11.13,4.17,11.13,12.47,0,.53,0,1.01-.05,1.54ZM179.02,20.14c0-2.97-1.68-5.56-5.42-5.56-3.41,0-6.14,2.35-6.38,5.56h11.8ZM175.18,0h6.52l-6.76,6.91h-4.51l4.75-6.91Z"/>
  </g>
  <g>
    <path class="cls-1" d="M104.88,49.06c-2.35-2.49-5.61-3.93-9.83-3.93-8.73,0-14.1,6.91-14.1,14.82s5.37,14.77,14.1,14.77c3.84,0,7.19-.91,9.16-2.21v-10.31h-7.91v-3.02h11.37v15.3c-3.69,2.21-8.06,3.31-12.66,3.31-10.26,0-17.7-7.53-17.7-17.84s7.58-17.84,17.7-17.84c5.37,0,9.4,1.73,12.28,4.56l-2.4,2.4Z"/>
    <path class="cls-1" d="M130.44,62.44c0-3.88-2.11-5.8-6-5.8-2.64,0-5.08,1.05-6.67,2.64l-1.82-2.16c1.82-1.82,4.99-3.21,8.82-3.21,4.84,0,8.73,2.69,8.73,8.15v9.83c0,1.73.14,3.79.38,5.04h-2.93c-.19-1.1-.34-2.45-.34-3.64h-.1c-2.06,2.97-4.56,4.22-8.15,4.22-3.4,0-7.77-1.82-7.77-6.81,0-6.91,7.62-7.53,15.83-7.53v-.72ZM129.48,65.7c-5.32,0-11.51.58-11.51,4.84,0,3.21,2.73,4.27,5.28,4.27,4.6,0,7.19-3.45,7.19-7.43v-1.68h-.96Z"/>
    <path class="cls-1" d="M143.1,81.43c1.77,2.3,5.18,4.12,8.58,4.12,6.43,0,8.78-3.98,8.78-8.82v-4.22h-.1c-1.73,2.78-5.23,4.41-8.49,4.41-7,0-11.61-4.84-11.61-11.41s4.6-11.61,11.61-11.61c3.26,0,6.71,1.58,8.49,4.46h.1v-3.88h3.26v22.25c0,4.89-2.25,11.7-12.18,11.7-4.12,0-8.15-1.73-10.79-4.51l2.35-2.49ZM152.21,74.14c5.04,0,8.63-3.55,8.63-8.73,0-4.7-3.6-8.78-8.63-8.78-5.42,0-8.49,4.08-8.49,8.78s3.07,8.73,8.49,8.73Z"/>
    <path class="cls-1" d="M182.52,77.5c-6.95,0-11.94-5.04-11.94-11.8s4.99-11.8,11.94-11.8,11.99,5.04,11.99,11.8-4.99,11.8-11.99,11.8ZM182.52,56.63c-5.18,0-8.49,4.03-8.49,9.06s3.31,9.02,8.49,9.02,8.54-3.98,8.54-9.02-3.31-9.06-8.54-9.06Z"/>
  </g>
  <g>
    <path class="cls-1" d="M208.64,74.18h1.88c1.42,0,2.98.95,2.98,2.84s-1.56,2.84-2.98,2.84h-1.88v-5.67ZM209.22,79.34h1.15c1.71,0,2.53-1.15,2.53-2.32s-.83-2.32-2.53-2.32h-1.15v4.65Z"/>
    <path class="cls-1" d="M220.72,79.34h3.04v.51h-3.61v-5.67h3.52v.51h-2.94v1.96h2.75v.5h-2.75v2.19Z"/>
    <path class="cls-1" d="M233.07,75.09c-.24-.34-.63-.57-1.17-.57s-1.21.34-1.21,1.07.6.91,1.23,1.11c.8.26,1.68.52,1.68,1.66s-.95,1.63-1.85,1.63c-.69,0-1.38-.28-1.79-.84l.5-.37c.25.4.7.71,1.3.71s1.26-.37,1.26-1.1c0-.79-.67-.99-1.39-1.22-.75-.23-1.52-.56-1.52-1.59,0-1.1.98-1.56,1.81-1.56.76,0,1.33.32,1.6.69l-.46.37Z"/>
    <path class="cls-1" d="M240.85,79.85h-.58v-5.67h.58v5.67Z"/>
    <path class="cls-1" d="M252.1,75.2c-.39-.42-.94-.66-1.64-.66-1.46,0-2.36,1.15-2.36,2.48s.9,2.47,2.36,2.47c.64,0,1.2-.15,1.53-.37v-1.72h-1.32v-.5h1.9v2.56c-.62.37-1.35.55-2.11.55-1.71,0-2.96-1.26-2.96-2.98s1.27-2.98,2.96-2.98c.9,0,1.57.29,2.05.76l-.4.4Z"/>
    <path class="cls-1" d="M263.49,79.01h.02v-4.83h.58v5.67h-.72l-3.3-4.88h-.02v4.88h-.58v-5.67h.72l3.3,4.83Z"/>
  </g>
  <g>
    <path class="cls-1" d="M211.39,58.79c-.24-.34-.63-.57-1.17-.57s-1.21.34-1.21,1.07.6.91,1.23,1.11c.8.26,1.68.52,1.68,1.66s-.95,1.63-1.85,1.63c-.69,0-1.38-.28-1.79-.84l.5-.37c.25.4.7.71,1.3.71s1.26-.37,1.26-1.1c0-.79-.67-.99-1.39-1.22-.75-.23-1.52-.56-1.52-1.59,0-1.1.98-1.56,1.81-1.56.76,0,1.33.32,1.6.69l-.46.37Z"/>
    <path class="cls-1" d="M219.18,63.04h3.04v.51h-3.61v-5.67h3.52v.51h-2.94v1.96h2.75v.5h-2.75v2.19Z"/>
    <path class="cls-1" d="M229.35,60.43h0l2.7-2.55h.83l-2.86,2.57,3.02,3.1h-.85l-2.84-3.02h0v3.02h-.58v-5.67h.58v2.55Z"/>
    <path class="cls-1" d="M239.21,61.44v-3.56h.58v3.49c0,.91.39,1.81,1.55,1.81s1.55-.9,1.55-1.81v-3.49h.58v3.56c0,.95-.42,2.26-2.12,2.26s-2.12-1.31-2.12-2.26Z"/>
    <path class="cls-1" d="M252.32,63.55h-.58v-2.44l-2.12-3.23h.72l1.71,2.75,1.72-2.75h.67l-2.12,3.23v2.44Z"/>
  </g>
  <polygon class="cls-1" points="266.93 69.53 207.63 69.53 207.63 68.53 265.93 68.53 265.93 21.12 195.64 21.12 195.64 20.12 266.93 20.12 266.93 69.53"/>
  <polygon class="cls-1" points="59.79 69.53 0 69.53 0 20.12 84.83 20.12 84.83 21.12 1 21.12 1 68.53 59.79 68.53 59.79 69.53"/>
</svg>