<?xml version="1.0" encoding="UTF-8"?>
<svg id="Capa_1" xmlns="http://www.w3.org/2000/svg" version="1.1" viewBox="0 0 800 800">
  <!-- Generator: Adobe Illustrator 29.8.2, SVG Export Plug-In . SVG Version: 2.1.1 Build 3)  -->
  <defs>
    <style>
      .st0 {
        fill: #300000;
      }

      .st1 {
        fill: #ff9b00;
      }
    </style>
  </defs>
  <g id="_x32_069a460dcf28295e231f3111e03585e">
    <g>
      <path class="st0" d="M355.61,340.61c-7.35-23.19-13.57-49.21-19.23-71.27h-1.13c-5.65,22.06-11.3,48.65-18.1,71.27l-29.41,93.89h97.86l-29.99-93.89ZM355.61,340.61c-7.35-23.19-13.57-49.21-19.23-71.27h-1.13c-5.65,22.06-11.3,48.65-18.1,71.27l-29.41,93.89h97.86l-29.99-93.89ZM355.61,340.61c-7.35-23.19-13.57-49.21-19.23-71.27h-1.13c-5.65,22.06-11.3,48.65-18.1,71.27l-29.41,93.89h97.86l-29.99-93.89ZM666.15.78H133.85C60.66.78.78,60.66.78,133.85v532.3c0,73.19,59.88,133.07,133.07,133.07h532.3c73.19,0,133.07-59.88,133.07-133.07V133.85C799.22,60.66,739.34.78,666.15.78ZM431.98,595.13l-34.51-108.03h-121.04l-32.8,108.03h-71.84l122.17-381.21h88.8l123.87,381.21h-74.65ZM624.25,595.13h-70.14v-275.45h70.14v275.45ZM588.61,280.09c-23.19,0-38.46-16.4-38.46-37.33s15.84-37.89,39.03-37.89,38.46,16.4,39.03,37.89c0,20.93-15.27,37.33-39.6,37.33ZM336.38,269.34h-1.13c-5.65,22.06-11.3,48.65-18.1,71.27l-29.41,93.89h97.86l-29.99-93.89c-7.35-23.19-13.57-49.21-19.23-71.27ZM355.61,340.61c-7.35-23.19-13.57-49.21-19.23-71.27h-1.13c-5.65,22.06-11.3,48.65-18.1,71.27l-29.41,93.89h97.86l-29.99-93.89ZM355.61,340.61c-7.35-23.19-13.57-49.21-19.23-71.27h-1.13c-5.65,22.06-11.3,48.65-18.1,71.27l-29.41,93.89h97.86l-29.99-93.89ZM355.61,340.61c-7.35-23.19-13.57-49.21-19.23-71.27h-1.13c-5.65,22.06-11.3,48.65-18.1,71.27l-29.41,93.89h97.86l-29.99-93.89Z"/>
      <rect class="st1" x="554.11" y="319.68" width="70.14" height="275.45"/>
      <path class="st1" d="M628.21,242.76c0,20.93-15.27,37.33-39.6,37.33s-38.46-16.4-38.46-37.33,15.84-37.89,39.03-37.89,38.46,16.4,39.03,37.89Z"/>
      <path class="st1" d="M382.76,213.92h-88.8l-122.17,381.21h71.84l32.8-108.03h121.04l34.51,108.03h74.65l-123.87-381.21ZM287.74,434.5l29.41-93.89c6.8-22.62,12.45-49.21,18.1-71.27h1.13c5.66,22.06,11.88,48.08,19.23,71.27l29.99,93.89h-97.86Z"/>
    </g>
  </g>
</svg>