<?xml version="1.0" encoding="UTF-8"?>
<svg id="Capa_1" xmlns="http://www.w3.org/2000/svg" version="1.1" viewBox="0 0 800 800">
  <!-- Generator: Adobe Illustrator 29.8.2, SVG Export Plug-In . SVG Version: 2.1.1 Build 3)  -->
  <defs>
    <style>
      .st0 {
        fill: #f36;
      }

      .st1 {
        fill: #49021f;
      }
    </style>
  </defs>
  <g id="_x32_069a460dcf28295e231f3111e035a9d">
    <g>
      <path class="st1" d="M527.82,418.95c-6.22-27.15-28.28-49.21-59.96-49.21-44.67,0-69.56,39.59-69.56,91.06s24.89,87.11,69,87.11c28.28,0,53.17-19.23,59.95-49.21,1.7-6.22,2.26-13.01,2.26-20.36v-41.29c0-5.66-.56-12.45-1.69-18.1ZM527.82,418.95c-6.22-27.15-28.28-49.21-59.96-49.21-44.67,0-69.56,39.59-69.56,91.06s24.89,87.11,69,87.11c28.28,0,53.17-19.23,59.95-49.21,1.7-6.22,2.26-13.01,2.26-20.36v-41.29c0-5.66-.56-12.45-1.69-18.1ZM527.82,418.95c-6.22-27.15-28.28-49.21-59.96-49.21-44.67,0-69.56,39.59-69.56,91.06s24.89,87.11,69,87.11c28.28,0,53.17-19.23,59.95-49.21,1.7-6.22,2.26-13.01,2.26-20.36v-41.29c0-5.66-.56-12.45-1.69-18.1ZM666.15.78H133.85C60.66.78.78,60.66.78,133.85v532.3c0,73.19,59.88,133.07,133.07,133.07h532.3c73.19,0,133.07-59.88,133.07-133.07V133.85C799.22,60.66,739.34.78,666.15.78ZM268.22,597.68h-69.57V216.46h69.57v381.22ZM539.13,597.68l-2.83-43.55h-1.13c-16.41,30.54-49.78,49.77-89.93,49.77-65.61,0-117.65-55.99-117.65-140.83-.56-92.2,57.13-147.06,123.31-147.06,37.89,0,65.05,15.84,77.48,36.2h1.13v-156.11h69.57v324.1c0,28.27,1.13,58.81,2.27,77.48h-62.22ZM467.86,369.74c-44.67,0-69.56,39.59-69.56,91.06s24.89,87.11,69,87.11c28.28,0,53.17-19.23,59.95-49.21,1.7-6.22,2.26-13.01,2.26-20.36v-41.29c0-5.66-.56-12.45-1.69-18.1-6.22-27.15-28.28-49.21-59.96-49.21ZM527.82,418.95c-6.22-27.15-28.28-49.21-59.96-49.21-44.67,0-69.56,39.59-69.56,91.06s24.89,87.11,69,87.11c28.28,0,53.17-19.23,59.95-49.21,1.7-6.22,2.26-13.01,2.26-20.36v-41.29c0-5.66-.56-12.45-1.69-18.1Z"/>
      <path class="st0" d="M599.08,520.2V196.1h-69.57v156.11h-1.13c-12.43-20.36-39.59-36.2-77.48-36.2-66.18,0-123.87,54.86-123.31,147.06,0,84.84,52.04,140.83,117.65,140.83,40.15,0,73.52-19.23,89.93-49.77h1.13l2.83,43.55h62.22c-1.14-18.67-2.27-49.21-2.27-77.48ZM529.51,478.34c0,7.35-.56,14.14-2.26,20.36-6.78,29.98-31.67,49.21-59.95,49.21-44.11,0-69-36.77-69-87.11s24.89-91.06,69.56-91.06c31.68,0,53.74,22.06,59.96,49.21,1.13,5.65,1.69,12.44,1.69,18.1v41.29Z"/>
      <rect class="st0" x="198.65" y="216.46" width="69.57" height="381.22"/>
    </g>
  </g>
</svg>