<?xml version="1.0" encoding="UTF-8"?>
<svg id="Capa_1" xmlns="http://www.w3.org/2000/svg" version="1.1" viewBox="0 0 800 800">
  <!-- Generator: Adobe Illustrator 29.8.2, SVG Export Plug-In . SVG Version: 2.1.1 Build 3)  -->
  <defs>
    <style>
      .st0 {
        fill: #001e36;
      }

      .st1 {
        fill: #31a8ff;
      }
    </style>
  </defs>
  <g id="_x32_069a460dcf28295e231f3111e037552">
    <g>
      <path class="st0" d="M269.08,258.32c-19.23,0-32.81,1.69-40.16,3.39v128.96c8.48,2.26,19.79,2.83,33.93,2.83,52.04,0,83.71-25.46,83.71-70.14s-29.41-65.04-77.48-65.04ZM269.08,258.32c-19.23,0-32.81,1.69-40.16,3.39v128.96c8.48,2.26,19.79,2.83,33.93,2.83,52.04,0,83.71-25.46,83.71-70.14s-29.41-65.04-77.48-65.04ZM666.15.78H133.85C60.66.78.78,60.66.78,133.85v532.3c0,73.19,59.88,133.07,133.07,133.07h532.3c73.19,0,133.07-59.88,133.07-133.07V133.85C799.22,60.66,739.34.78,666.15.78ZM383.33,407.07c-27.72,27.71-71.27,40.73-120.48,40.73-13.01,0-24.88-.57-33.93-2.27v143.66h-69V213.07c24.88-4.53,59.39-7.92,106.33-7.92,50.9,0,88.23,10.74,112.56,31.11,22.62,18.67,37.32,48.64,37.32,84.27s-11.31,66.18-32.8,86.54ZM528.1,594.85c-33.38,0-63.35-7.92-83.71-19.23l13.57-50.34c15.84,9.62,45.81,19.8,70.7,19.8,30.54,0,44.12-12.44,44.12-30.55s-11.31-28.28-45.25-40.15c-53.74-18.67-76.35-48.08-75.79-80.32,0-48.64,40.16-86.53,104.07-86.53,30.54,0,57.13,7.92,72.96,16.4l-13.57,49.2c-11.88-6.78-33.94-15.83-58.26-15.83s-38.46,11.88-38.46,28.84,13.01,26.02,48.08,38.47c49.77,18.09,72.96,43.54,73.52,84.27,0,49.77-39.02,85.97-111.98,85.97ZM269.08,258.32c-19.23,0-32.81,1.69-40.16,3.39v128.96c8.48,2.26,19.79,2.83,33.93,2.83,52.04,0,83.71-25.46,83.71-70.14s-29.41-65.04-77.48-65.04ZM269.08,258.32c-19.23,0-32.81,1.69-40.16,3.39v128.96c8.48,2.26,19.79,2.83,33.93,2.83,52.04,0,83.71-25.46,83.71-70.14s-29.41-65.04-77.48-65.04ZM269.08,258.32c-19.23,0-32.81,1.69-40.16,3.39v128.96c8.48,2.26,19.79,2.83,33.93,2.83,52.04,0,83.71-25.46,83.71-70.14s-29.41-65.04-77.48-65.04Z"/>
      <path class="st1" d="M640.08,508.88c0,49.77-39.02,85.97-111.98,85.97-33.38,0-63.35-7.92-83.71-19.23l13.57-50.34c15.84,9.62,45.81,19.8,70.7,19.8,30.54,0,44.12-12.44,44.12-30.55s-11.31-28.28-45.25-40.15c-53.74-18.67-76.35-48.08-75.79-80.32,0-48.64,40.16-86.53,104.07-86.53,30.54,0,57.13,7.92,72.96,16.4l-13.57,49.2c-11.88-6.78-33.94-15.83-58.26-15.83s-38.46,11.88-38.46,28.84,13.01,26.02,48.08,38.47c49.77,18.09,72.96,43.54,73.52,84.27Z"/>
      <path class="st1" d="M378.81,236.26c-24.33-20.37-61.66-31.11-112.56-31.11-46.94,0-81.45,3.39-106.33,7.92v376.12h69v-143.66c9.05,1.7,20.92,2.27,33.93,2.27,49.21,0,92.76-13.02,120.48-40.73,21.49-20.36,32.8-50.34,32.8-86.54s-14.7-65.6-37.32-84.27ZM262.85,393.5c-14.14,0-25.45-.57-33.93-2.83v-128.96c7.35-1.7,20.93-3.39,40.16-3.39,48.07,0,77.48,22.62,77.48,65.04,0,44.68-31.67,70.14-83.71,70.14Z"/>
    </g>
  </g>
</svg>